<svg xmlns="http://www.w3.org/2000/svg" xmlns:xlink="http://www.w3.org/1999/xlink" viewBox="0 0 1511.5 653"><defs><style>.cls-1{fill:url(#radial-gradient);}.cls-10,.cls-2,.cls-20,.cls-30,.cls-32,.cls-8{opacity:0.31;}.cls-2{fill:url(#linear-gradient);}.cls-3{fill:#f2f2f2;}.cls-4{fill:#333;}.cls-5{fill:url(#linear-gradient-2);}.cls-6{fill:url(#linear-gradient-3);}.cls-7{fill:#f4cac1;}.cls-8{fill:url(#linear-gradient-4);}.cls-9{fill:#e6e6e6;}.cls-10{fill:url(#linear-gradient-5);}.cls-11{fill:url(#linear-gradient-6);}.cls-12{fill:url(#linear-gradient-7);}.cls-13{fill:url(#linear-gradient-8);}.cls-14{fill:url(#linear-gradient-9);}.cls-15{fill:#b3b3b3;}.cls-16{fill:#999;}.cls-17,.cls-33{fill:none;}.cls-18{fill:#ccc;}.cls-19{fill:#fff;}.cls-20{fill:url(#linear-gradient-10);}.cls-21{font-size:6.98px;fill:gray;font-family:MyriadPro-Regular, Myriad Pro;}.cls-22{letter-spacing:0em;}.cls-23{letter-spacing:0em;}.cls-24{letter-spacing:0.02em;}.cls-25{letter-spacing:-0.01em;}.cls-26{letter-spacing:0em;}.cls-27,.cls-28,.cls-29{opacity:0.51;}.cls-27{fill:url(#linear-gradient-11);}.cls-28{fill:url(#linear-gradient-12);}.cls-29{fill:url(#linear-gradient-13);}.cls-31{fill:url(#linear-gradient-14);}.cls-32{fill:url(#linear-gradient-15);}.cls-33{stroke-miterlimit:10;stroke:url(#linear-gradient-16);}.cls-34{fill:#eea886;}.cls-35{fill:#db9c7c;}.cls-36{fill:#f7931e;}.cls-37{fill:#efaa88;}.cls-38{fill:#424773;}.cls-39{fill:#292c47;}.cls-40{fill:#e2d2ca;}.cls-41{fill:#dfe1e8;}.cls-42{fill:url(#linear-gradient-17);}.cls-43{fill:url(#linear-gradient-18);}.cls-44{fill:url(#linear-gradient-19);}.cls-45{fill:url(#linear-gradient-20);}.cls-46{fill:url(#linear-gradient-21);}.cls-47{fill:url(#linear-gradient-22);}.cls-48{fill:url(#linear-gradient-23);}.cls-49{fill:url(#linear-gradient-24);}.cls-50{fill:url(#linear-gradient-25);}.cls-51{fill:#101c35;}.cls-52{fill:#c1272d;}.cls-53{fill:#a77860;}.cls-54{fill:#f45221;opacity:0.38;}.cls-55{fill:#91887f;}.cls-56{fill:#5e5853;}.cls-57{fill:#6e6760;}.cls-58{fill:url(#linear-gradient-26);}.cls-59{fill:url(#linear-gradient-27);}.cls-60{fill:url(#linear-gradient-28);}.cls-61{fill:url(#linear-gradient-29);}.cls-62{fill:url(#linear-gradient-30);}.cls-63{fill:url(#linear-gradient-31);}.cls-64{fill:url(#linear-gradient-32);}.cls-65{fill:url(#linear-gradient-33);}.cls-66{fill:url(#linear-gradient-34);}.cls-67{fill:url(#linear-gradient-35);}.cls-68{fill:url(#linear-gradient-36);}.cls-69{fill:url(#linear-gradient-37);}.cls-70{fill:url(#linear-gradient-38);}.cls-71{fill:url(#linear-gradient-39);}.cls-72{fill:url(#linear-gradient-40);}.cls-73{fill:url(#linear-gradient-41);}.cls-74{fill:url(#linear-gradient-42);}.cls-75{fill:url(#linear-gradient-43);}.cls-76{fill:#ea8018;}.cls-77{fill:#e87e15;}</style><radialGradient id="radial-gradient" cx="772.16" cy="289.11" r="374.84" gradientTransform="translate(1679.61 -507.47) rotate(88.48) scale(1 3.21)" gradientUnits="userSpaceOnUse"><stop offset="0.4" stop-color="#b3b3b3"/><stop offset="0.44" stop-color="#b6b6b6" stop-opacity="0.95"/><stop offset="0.51" stop-color="silver" stop-opacity="0.83"/><stop offset="0.59" stop-color="#d0d0d0" stop-opacity="0.62"/><stop offset="0.68" stop-color="#e5e5e5" stop-opacity="0.34"/><stop offset="0.78" stop-color="#fff" stop-opacity="0"/></radialGradient><linearGradient id="linear-gradient" x1="441.73" y1="563.37" x2="540.98" y2="563.37" gradientTransform="translate(-11.05 -132.34) rotate(-4.05)" gradientUnits="userSpaceOnUse"><stop offset="0.01" stop-color="#eb2427"/><stop offset="1" stop-color="#f9a11e"/></linearGradient><linearGradient id="linear-gradient-2" x1="1201.78" y1="420.46" x2="1209.31" y2="284.2" gradientTransform="matrix(1, 0, 0, 1, 0, 0)" xlink:href="#linear-gradient"/><linearGradient id="linear-gradient-3" x1="1166.28" y1="396.39" x2="1180.59" y2="264.64" gradientTransform="matrix(1, 0, 0, 1, 0, 0)" xlink:href="#linear-gradient"/><linearGradient id="linear-gradient-4" x1="1109.5" y1="124" x2="1277.5" y2="124" gradientTransform="matrix(1, 0, 0, 1, 0, 0)" xlink:href="#linear-gradient"/><linearGradient id="linear-gradient-5" x1="944.56" y1="319.43" x2="989.67" y2="80.87" gradientTransform="matrix(1, 0, 0, 1, 0, 0)" xlink:href="#linear-gradient"/><linearGradient id="linear-gradient-6" x1="574.55" y1="469.61" x2="579.64" y2="377.49" gradientTransform="matrix(1, 0, 0, 1, 0, 0)" xlink:href="#linear-gradient"/><linearGradient id="linear-gradient-7" x1="550.55" y1="453.34" x2="560.22" y2="364.28" gradientTransform="matrix(1, 0, 0, 1, 0, 0)" xlink:href="#linear-gradient"/><linearGradient id="linear-gradient-8" x1="653.86" y1="466.94" x2="656.29" y2="422.95" gradientTransform="matrix(1, 0, 0, 1, 0, 0)" xlink:href="#linear-gradient"/><linearGradient id="linear-gradient-9" x1="642.4" y1="459.17" x2="647.01" y2="416.64" gradientTransform="matrix(1, 0, 0, 1, 0, 0)" xlink:href="#linear-gradient"/><linearGradient id="linear-gradient-10" x1="735.66" y1="147.89" x2="773" y2="16.19" gradientTransform="matrix(1, 0, 0, 1, 0, 0)" xlink:href="#linear-gradient"/><linearGradient id="linear-gradient-11" x1="946.56" y1="253.86" x2="1140.56" y2="253.86" gradientTransform="matrix(1, 0, 0, 1, 0, 0)" xlink:href="#linear-gradient"/><linearGradient id="linear-gradient-12" x1="1043.02" y1="287.79" x2="1045.75" y2="242.22" gradientTransform="matrix(1, 0, 0, 1, 0, 0)" xlink:href="#linear-gradient"/><linearGradient id="linear-gradient-13" x1="1042.05" y1="287.73" x2="1045.1" y2="236.9" gradientTransform="matrix(1, 0, 0, 1, 0, 0)" xlink:href="#linear-gradient"/><linearGradient id="linear-gradient-14" x1="801.56" y1="226.23" x2="893.56" y2="226.23" gradientTransform="matrix(1, 0, 0, 1, 0, 0)" xlink:href="#linear-gradient"/><linearGradient id="linear-gradient-15" x1="744.94" y1="369.28" x2="770.91" y2="260.59" gradientTransform="matrix(1, 0, 0, 1, 0, 0)" xlink:href="#linear-gradient"/><linearGradient id="linear-gradient-16" x1="749.22" y1="315.05" x2="761.14" y2="342.86" gradientTransform="matrix(1, 0, 0, 1, 0, 0)" xlink:href="#linear-gradient"/><linearGradient id="linear-gradient-17" x1="752.76" y1="38.14" x2="770.45" y2="38.14" gradientUnits="userSpaceOnUse"><stop offset="0" stop-color="#f9a11e"/><stop offset="0.99" stop-color="#eb2427"/></linearGradient><linearGradient id="linear-gradient-18" x1="762.22" y1="46.31" x2="766.34" y2="55.93" gradientTransform="matrix(1, 0, 0, 1, 0, 0)" xlink:href="#linear-gradient"/><linearGradient id="linear-gradient-19" x1="758.28" y1="48" x2="762.4" y2="57.62" gradientTransform="matrix(1, 0, 0, 1, 0, 0)" xlink:href="#linear-gradient"/><linearGradient id="linear-gradient-20" x1="762.12" y1="46.36" x2="764.36" y2="51.58" gradientTransform="matrix(1, 0, 0, 1, 0, 0)" xlink:href="#linear-gradient"/><linearGradient id="linear-gradient-21" x1="760.96" y1="46.86" x2="765.08" y2="56.48" gradientTransform="matrix(1, 0, 0, 1, 0, 0)" xlink:href="#linear-gradient"/><linearGradient id="linear-gradient-22" x1="749.47" y1="74.62" x2="766.99" y2="54.9" xlink:href="#linear-gradient-17"/><linearGradient id="linear-gradient-23" x1="739.74" y1="35.51" x2="760.53" y2="35.51" xlink:href="#linear-gradient-17"/><linearGradient id="linear-gradient-24" x1="742.63" y1="69.24" x2="744.49" y2="43.68" xlink:href="#linear-gradient-17"/><linearGradient id="linear-gradient-25" x1="750.23" y1="39.02" x2="750.27" y2="39.02" gradientUnits="userSpaceOnUse"><stop offset="0" stop-color="#ec1869"/><stop offset="1" stop-color="#dc2124"/></linearGradient><linearGradient id="linear-gradient-26" x1="382.35" y1="2226.33" x2="385.16" y2="2226.33" gradientTransform="matrix(0.8, -0.6, 0.6, 0.8, -717, -1122.91)" xlink:href="#linear-gradient-17"/><linearGradient id="linear-gradient-27" x1="383.85" y1="2227.62" x2="384.51" y2="2229.15" gradientTransform="matrix(0.8, -0.6, 0.6, 0.8, -717, -1122.91)" xlink:href="#linear-gradient"/><linearGradient id="linear-gradient-28" x1="383.23" y1="2227.89" x2="383.88" y2="2229.42" gradientTransform="matrix(0.8, -0.6, 0.6, 0.8, -717, -1122.91)" xlink:href="#linear-gradient"/><linearGradient id="linear-gradient-29" x1="383.84" y1="2227.63" x2="384.19" y2="2228.46" gradientTransform="matrix(0.8, -0.6, 0.6, 0.8, -717, -1122.91)" xlink:href="#linear-gradient"/><linearGradient id="linear-gradient-30" x1="383.65" y1="2227.71" x2="384.31" y2="2229.24" gradientTransform="matrix(0.8, -0.6, 0.6, 0.8, -717, -1122.91)" xlink:href="#linear-gradient"/><linearGradient id="linear-gradient-31" x1="381.83" y1="2232.12" x2="384.61" y2="2228.99" gradientTransform="matrix(0.8, -0.6, 0.6, 0.8, -717, -1122.91)" xlink:href="#linear-gradient-17"/><linearGradient id="linear-gradient-32" x1="380.28" y1="2225.91" x2="383.58" y2="2225.91" gradientTransform="matrix(0.8, -0.6, 0.6, 0.8, -717, -1122.91)" xlink:href="#linear-gradient-17"/><linearGradient id="linear-gradient-33" x1="380.74" y1="2231.26" x2="381.04" y2="2227.21" gradientTransform="matrix(0.8, -0.6, 0.6, 0.8, -717, -1122.91)" xlink:href="#linear-gradient-17"/><linearGradient id="linear-gradient-34" x1="381.95" y1="2226.47" x2="381.95" y2="2226.47" gradientTransform="matrix(0.8, -0.6, 0.6, 0.8, -717, -1122.91)" xlink:href="#linear-gradient-25"/><linearGradient id="linear-gradient-35" x1="679.38" y1="292.31" x2="687.3" y2="292.31" xlink:href="#linear-gradient-17"/><linearGradient id="linear-gradient-36" x1="683.62" y1="295.97" x2="685.47" y2="300.28" gradientTransform="matrix(1, 0, 0, 1, 0, 0)" xlink:href="#linear-gradient"/><linearGradient id="linear-gradient-37" x1="681.85" y1="296.73" x2="683.7" y2="301.03" gradientTransform="matrix(1, 0, 0, 1, 0, 0)" xlink:href="#linear-gradient"/><linearGradient id="linear-gradient-38" x1="683.58" y1="295.99" x2="684.58" y2="298.33" gradientTransform="matrix(1, 0, 0, 1, 0, 0)" xlink:href="#linear-gradient"/><linearGradient id="linear-gradient-39" x1="683.05" y1="296.21" x2="684.9" y2="300.52" gradientTransform="matrix(1, 0, 0, 1, 0, 0)" xlink:href="#linear-gradient"/><linearGradient id="linear-gradient-40" x1="677.91" y1="308.65" x2="685.76" y2="299.81" xlink:href="#linear-gradient-17"/><linearGradient id="linear-gradient-41" x1="673.55" y1="291.13" x2="682.86" y2="291.13" xlink:href="#linear-gradient-17"/><linearGradient id="linear-gradient-42" x1="674.85" y1="306.24" x2="675.68" y2="294.79" xlink:href="#linear-gradient-17"/><linearGradient id="linear-gradient-43" x1="678.25" y1="292.7" x2="678.27" y2="292.7" xlink:href="#linear-gradient-25"/></defs><title>hero-img</title><g id="Layer_2" data-name="Layer 2"><g id="Layer_1-2" data-name="Layer 1"><path class="cls-1" d="M1511.5,483h0c0,93.89-338.36,170-755.75,170h0C338.36,653,0,576.89,0,483H0"/><circle class="cls-2" cx="518.89" cy="394.89" r="49.62"/><path class="cls-3" d="M294.5,483s74,6,107-42,58-19,124-6,252-27,310-181,127.2,55.46,162.1,106.23S1158.5,445,1205.5,387s72,42,107,63,68,10,75,33H294.5"/><rect class="cls-4" x="1199.44" y="422.31" width="3.3" height="72.69"/><path class="cls-5" d="M1248.44,364.11c26.39,21.5-18.63,74.28-46.42,74.28s-50.33-20.82-50.33-61.58c0-18.21,21.09-26.19,13.68-39.09-22.48-39.09,12.2-46.77,16.61-63.52,4.89-18.57,12.28-17.43,17.11-22.08,2.44-2.36,45.44,30.87,38.6,74.85C1235.65,340.11,1238.25,355.81,1248.44,364.11Z"/><path class="cls-6" d="M1160.75,415a48.34,48.34,0,0,1,5.65-15.81c21.48-39.65,17.35-49.56,8.26-69.39-8.72-19,11.57-58.65,24.78-77.65-4.17,2.44-14,8.9-17.46,22.06-4.4,16.75-39.09,24.43-16.61,63.52,7.41,12.9-13.68,20.88-13.68,39.09C1151.69,392.52,1155,405.26,1160.75,415Z"/><path class="cls-7" d="M756.56,184s3,12,2,17,25,8,28,0l1-20Z"/><circle class="cls-8" cx="1193.5" cy="124" r="84"/><rect class="cls-9" x="741.5" y="94.32" width="440.83" height="268.68" rx="11.44"/><rect class="cls-10" x="760.56" y="112" width="402" height="235"/><rect class="cls-4" x="572.97" y="470.86" width="2.23" height="49.14"/><path class="cls-11" d="M606.09,431.52c17.84,14.53-12.59,50.21-31.38,50.21s-34-14.08-34-41.62c0-12.32,14.26-17.71,9.24-26.43-15.19-26.43,8.26-31.62,11.24-42.94,3.3-12.56,8.3-11.79,11.56-14.93,1.65-1.59,30.72,20.87,26.09,50.6C597.44,415.29,599.21,425.91,606.09,431.52Z"/><path class="cls-12" d="M546.81,465.91a32.89,32.89,0,0,1,3.82-10.69c14.52-26.8,11.73-33.5,5.59-46.9-5.9-12.87,7.82-39.65,16.75-52.49a24.6,24.6,0,0,0-11.8,14.91c-3,11.32-26.43,16.51-11.23,42.94,5,8.72-9.25,14.11-9.25,26.43C540.69,450.72,543,459.33,546.81,465.91Z"/><rect class="cls-4" x="653.1" y="467.54" width="1.07" height="23.46"/><path class="cls-13" d="M668.92,448.75c8.52,6.94-6,24-15,24s-16.24-6.72-16.24-19.87c0-5.88,6.81-8.46,4.41-12.62-7.25-12.62,3.94-15.1,5.37-20.51,1.57-6,4-5.62,5.52-7.12.78-.76,14.67,10,12.46,24.16C664.79,441,665.63,446.07,668.92,448.75Z"/><path class="cls-14" d="M640.61,465.17a15.44,15.44,0,0,1,1.83-5.1c6.93-12.8,5.6-16,2.66-22.4-2.81-6.14,3.74-18.93,8-25.06a11.69,11.69,0,0,0-5.63,7.11c-1.43,5.41-12.62,7.89-5.37,20.51,2.4,4.16-4.41,6.74-4.41,12.62A24.15,24.15,0,0,0,640.61,465.17Z"/><path class="cls-15" d="M1093.19,486.9l.33.06-.39,48.88c-.93-.17-1.9-.33-2.89-.48l-.53-.08-2.4-.34-.74-.1-3-.34-.24,0c-1.09-.12-2.19-.22-3.32-.32l-.5-49.16c.49,0,1.86.36,2.34.41l1.87.18.23,0h.09l2.2.25.66.09.75.1.82.1,1.58.23.52.08.18,0Z"/><polygon class="cls-15" points="951.23 471.97 951.11 520.86 916.41 513 916.53 464.11 951.23 471.97"/><polygon class="cls-16" points="1178.02 466.52 1177.9 515.41 1140.57 522.66 1140.69 473.77 1178.02 466.52"/><path class="cls-16" d="M1032.36,475.29l-.12,48.89a1.27,1.27,0,0,0,0-.34l0-.11a2,2,0,0,0-.07-.23s0-.08-.07-.13l-.11-.2-.1-.14-.15-.2-.14-.14-.18-.19-.17-.15-.22-.18-.21-.15-.26-.18-.23-.14-.31-.18-.26-.14-.35-.18-.29-.14-.39-.18-.32-.14-.44-.17-.34-.13-.5-.18-.35-.13-.57-.18-.36-.11-.74-.22-.26-.07-1.07-.28-1.19-.28c-.7-.16-1.44-.31-2.18-.45l-.83-.16c-.8-.14-1.62-.28-2.47-.41H1017q-1.29-.19-2.64-.36l-.53-.07-2.71-.29-.49,0c-.94-.09-1.9-.17-2.87-.24l-.33,0-3.09-.19h-.1c-1.09,0-2.18-.1-3.29-.13h-.06c-1.13,0-2.27-.06-3.41-.07H993.8c-1.08,0-2.16,0-3.23.06h-.26c-.89,0-1.78.07-2.65.12s-1.71.09-2.56.15L984,517c-1.2.09-2.37.19-3.53.31l-.51,0c-1,.11-1.93.21-2.86.34-.44.05-.87.12-1.3.18l-1.73.26c-.84.13-1.66.27-2.46.43l-6.19.93-2.16.3-.83.1-.66.09c-.93.11-1.87.22-2.84.31l-.18,0-2.51.22-1.25.11c-1.28.1-2.58.18-3.9.26l.12-48.89c1.32-.07,2.62-.16,3.9-.26l1.25-.11,2.51-.22c1-.1,2-.21,3-.33l.67-.08c1-.13,2-.26,3-.41l6.19-.93,2.1-.38.36-.05,1.73-.26,1-.15.27,0c.93-.12,1.88-.23,2.84-.33l.48-.05h.05c1.16-.11,2.33-.21,3.53-.3l1.08-.07c.85-.06,1.69-.11,2.56-.15l.42,0,2.21-.08h.34l1.93-.05,1.24,0h3.67l1.66,0,1.68,0h.1l1.64.06,1.65.07h.14l1.8.1,1.26.09.32,0h.22l1.81.15.85.08.47,0,.47,0,1.79.19.46.06.52.06.86.11,1.8.25h.09l2,.32.47.09.83.15.85.17,1.33.28,1.19.29h0l1.05.28.28.07.72.21.35.12.57.18.36.12.5.18.34.13.44.18.32.14.39.17.3.14.34.18.27.14.3.18.23.15.26.18.2.15.23.18.17.15.18.18.14.15.15.19.1.14c0,.07.07.14.11.2a.84.84,0,0,1,.06.14,1,1,0,0,1,.08.22l0,.11A2.09,2.09,0,0,1,1032.36,475.29Z"/><path class="cls-17" d="M1161.55,483.13l-.12,48.89c0,2-3.83,4-11.39,5.49-14.52,2.82-37.3,2.6-50.89-.47l.12-48.89c13.59,3.08,36.37,3.29,50.89.47C1157.72,487.15,1161.54,485.15,1161.55,483.13Z"/><path class="cls-15" d="M1161.7,483.42l-.39,48.82v.07a2,2,0,0,1-.09.48,3,3,0,0,1-.22.44,4.26,4.26,0,0,1-.34.43,5.5,5.5,0,0,1-.42.4c-.16.13-.33.26-.52.39s-.4.25-.62.38l-.72.37c-.26.13-.54.25-.84.37l-1,.38-1.12.37q-.63.21-1.35.39l-1.63.42c-.66.15-1.34.3-2.07.44l-.51.1c-.68.12-1.39.25-2.1.36q-1.51.24-3.12.45c-1.17.14-2.37.28-3.59.39-2.46.24-5,.41-7.64.51-.85,0-1.7.06-2.56.09l-1.93,0-1.69,0h-1.62l-1.6,0-1.65,0-1.69-.05-1.74-.07-1.79-.09-1.79-.11-1.81-.14-1.8-.15-1.8-.18-1.79-.2-1.83-.24-1.89-.28c-.67-.1-1.33-.21-2-.33s-1.46-.27-2.16-.42l-1.32-.29-5.87-1.08.38-48.88,5.88,1.07,1.32.3,2.15.41,2,.34c.62.09,1.24.19,1.88.27s1.22.17,1.84.24l1.79.21,1.8.17,1.8.16,1.8.13,1.8.11c.59,0,1.19.07,1.79.09l1.74.07,1.68.05,1.66,0h4.91l1.93,0,2.55-.08c2.62-.11,5.18-.28,7.64-.51,1.23-.12,2.43-.25,3.6-.4s2.1-.28,3.11-.44l2.11-.37.51-.1c.72-.14,1.41-.29,2.06-.44s1.12-.27,1.64-.41l1.35-.39,1.12-.38c.34-.12.66-.24,1-.37s.58-.25.84-.37.5-.25.72-.38a6,6,0,0,0,.62-.38,6.08,6.08,0,0,0,.53-.39,3.22,3.22,0,0,0,.42-.4,3,3,0,0,0,.33-.42,1.87,1.87,0,0,0,.22-.45A1.65,1.65,0,0,0,1161.7,483.42Z"/><polygon class="cls-15" points="1042.97 492.75 1042.86 541.64 1008.16 533.78 1008.27 484.89 1042.97 492.75"/><path class="cls-18" d="M1178,466.52l-37.33,7.25a22.11,22.11,0,0,0,6.64,2.86l4.5,1.31c13.59,3.08,12.84,7.86-1.67,10.68s-37.3,2.61-50.89-.47l-5.88-1c-3.89-.69-8.32-1.24-13.08-1.61L1043,492.75l-34.7-7.86a29.5,29.5,0,0,1,7.8-2.89l4.89-1.22c14.52-2.82,15.27-7.6,1.68-10.68s-36.37-3.29-50.88-.47l-6.2.93c-4.32.65-9.17,1.13-14.33,1.41l-34.7-7.86,135-26.23Z"/><polygon class="cls-16" points="1080.31 485.5 1080.19 534.39 1042.86 541.64 1042.97 492.75 1080.31 485.5"/><rect class="cls-19" x="935.56" y="153" width="216" height="153" rx="7.04"/><rect class="cls-19" x="771.56" y="153" width="153" height="153" rx="7.04"/><rect class="cls-9" x="643.56" y="261.42" width="225" height="137.14" rx="8.88"/><rect class="cls-9" x="701.81" width="103" height="174" rx="10.04"/><rect class="cls-20" x="710.56" y="9" width="85" height="155" rx="3.47"/><rect class="cls-19" x="716.56" y="133" width="73" height="17" rx="8.5"/><text class="cls-21" transform="translate(736.52 143.55)"><tspan class="cls-22">G</tspan><tspan x="4.54" y="0">et </tspan><tspan class="cls-23" x="11.83" y="0">S</tspan><tspan x="15.25" y="0">ta</tspan><tspan class="cls-24" x="20.93" y="0">r</tspan><tspan class="cls-25" x="23.38" y="0">t</tspan><tspan class="cls-26" x="25.65" y="0">ed</tspan></text><rect class="cls-19" x="731.56" y="89" width="57" height="4" rx="2"/><rect class="cls-19" x="718.56" y="89" width="4" height="4" rx="2" transform="translate(1441.12 182) rotate(180)"/><rect class="cls-19" x="731.56" y="99" width="57" height="4" rx="2"/><rect class="cls-19" x="718.56" y="99" width="4" height="4" rx="2" transform="translate(1441.12 202) rotate(180)"/><rect class="cls-19" x="731.56" y="110" width="57" height="4" rx="2"/><rect class="cls-19" x="718.56" y="110" width="4" height="4" rx="2" transform="translate(1441.12 224) rotate(180)"/><rect class="cls-19" x="731.56" y="122" width="57" height="4" rx="2"/><rect class="cls-19" x="718.56" y="122" width="4" height="4" rx="2" transform="translate(1441.12 248) rotate(180)"/><path class="cls-27" d="M946.56,282V257s13-2,22,5a16.16,16.16,0,0,0,26-11c2-14,18-17,26,3s13-29,21-23,21.47,19,24.74-.51,9.26,49.51,21.26,31.51,18-52,33-28,20-6.51,20-6.51V282Z"/><path class="cls-28" d="M946.56,282s-3-21,16-10c9.2,5.33,16-26,25-17s11-12,26,0,28,8,32-15,13-48,20-13,16,30,18,22,4-11,8-4,13,17,18-5,9-5,16-18,15-15,15-15v75Z"/><path class="cls-29" d="M946.56,282V243s20,26,27,14,9-25,32-9,14.19-37.09,29.1-10.05,18.9-12.95,26.9,4.05,13-54,35-14,25-31,44-31v85Z"/><line class="cls-3" x1="995.56" y1="282" x2="995.56" y2="176"/><line class="cls-3" x1="1043.56" y1="282" x2="1043.56" y2="176"/><line class="cls-3" x1="946.56" y1="282" x2="946.56" y2="176"/><line class="cls-3" x1="1140.33" y1="282" x2="1140.33" y2="176"/><line class="cls-3" x1="1092.56" y1="282" x2="1092.56" y2="176"/><line class="cls-19" x1="946.56" y1="248.37" x2="1140.56" y2="248.37"/><line class="cls-19" x1="946.56" y1="208.37" x2="1140.56" y2="208.37"/><g class="cls-30"><path class="cls-18" d="M823.32,266a1,1,0,0,1-1.39.24,43.53,43.53,0,1,1,54.55-2.65,1,1,0,0,1-1.4-.1h0a1,1,0,0,1,.1-1.39,41.55,41.55,0,1,0-52.1,2.53,1,1,0,0,1,.24,1.37Z"/></g><path class="cls-31" d="M823.39,265.9a3.45,3.45,0,0,1-5,.72A46,46,0,1,1,891,246.17a3.48,3.48,0,0,1-4.69,2.05h0a3.47,3.47,0,0,1-1.86-4.33,39.08,39.08,0,1,0-61.74,17.35,3.47,3.47,0,0,1,.65,4.66Z"/><path class="cls-15" d="M842,222.34a6.39,6.39,0,0,1,4.06,1.19,4,4,0,0,1,1.49,3.29,4.06,4.06,0,0,1-.85,2.52,7.66,7.66,0,0,1-2.74,2.08,9.18,9.18,0,0,1,3.23,2.28,4.3,4.3,0,0,1,1,2.77,4.64,4.64,0,0,1-1.62,3.72,6.61,6.61,0,0,1-4.45,1.39,7.15,7.15,0,0,1-4.61-1.31,4.51,4.51,0,0,1-1.62-3.72q0-3.21,3.92-5a7.24,7.24,0,0,1-2.53-2.16,4.61,4.61,0,0,1-.77-2.59,4,4,0,0,1,1.5-3.25A6.3,6.3,0,0,1,842,222.34Zm-4.05,14.26A2.92,2.92,0,0,0,839,239a4.7,4.7,0,0,0,3,.85,4.5,4.5,0,0,0,3-.89,3.15,3.15,0,0,0,.07-4.67,10.25,10.25,0,0,0-3.48-1.87,7.45,7.45,0,0,0-2.77,1.81A3.51,3.51,0,0,0,837.92,236.6Zm4-12.53a3.8,3.8,0,0,0-2.51.77,2.55,2.55,0,0,0-.9,2,2.94,2.94,0,0,0,.75,2,7.82,7.82,0,0,0,2.79,1.69,7,7,0,0,0,2.59-1.65,3.05,3.05,0,0,0,.76-2.06,2.55,2.55,0,0,0-.92-2.06A4,4,0,0,0,841.94,224.07Z"/><path class="cls-15" d="M863.16,231.94c0,3.24-.51,5.65-1.53,7.25a5.65,5.65,0,0,1-9.27-.06q-1.58-2.44-1.57-7.19c0-3.26.5-5.68,1.52-7.25a5.65,5.65,0,0,1,9.27.1C862.64,226.44,863.16,228.82,863.16,231.94Zm-10.22,0a13.7,13.7,0,0,0,1,5.95,3.44,3.44,0,0,0,6.13,0A18.67,18.67,0,0,0,860,226a3.45,3.45,0,0,0-6.13,0A13.6,13.6,0,0,0,852.94,231.94Z"/><path class="cls-15" d="M863.63,237a1.38,1.38,0,0,1,.41-1,1.4,1.4,0,0,1,1.06-.42,1.49,1.49,0,0,1,1.08.41,1.43,1.43,0,0,1,.41,1,1.41,1.41,0,0,1-.41,1,1.46,1.46,0,0,1-1.07.41,1.42,1.42,0,0,1-1.07-.41A1.39,1.39,0,0,1,863.63,237Zm.79,0a.78.78,0,0,0,.19.55.68.68,0,0,0,.49.2.69.69,0,0,0,.51-.2.79.79,0,0,0,.19-.56.76.76,0,0,0-.2-.56.64.64,0,0,0-.5-.21.64.64,0,0,0-.49.21A.8.8,0,0,0,864.42,237Zm.13,4.44,3.7-5.82h.66l-3.71,5.82Zm2.29-1.34a1.42,1.42,0,0,1,1.47-1.46,1.41,1.41,0,0,1,1.48,1.46,1.39,1.39,0,0,1-.41,1,1.46,1.46,0,0,1-1.07.41,1.41,1.41,0,0,1-1.06-.41A1.39,1.39,0,0,1,866.84,240.14Zm.78,0a.82.82,0,0,0,.19.56.69.69,0,0,0,.5.2.68.68,0,0,0,.51-.21.75.75,0,0,0,.19-.55.82.82,0,0,0-.2-.57.7.7,0,0,0-1,0A.82.82,0,0,0,867.62,240.14Z"/><rect class="cls-9" x="643.56" y="261.42" width="225" height="137.14" rx="8.88"/><rect class="cls-32" x="656.56" y="275" width="196" height="108"/><polyline class="cls-33" points="681.56 349.79 697.56 337.79 718.56 346.79 749.56 316.79 771.56 337.79 826.56 302.79"/><path class="cls-34" d="M734.3,397.65a6.81,6.81,0,0,1,.87,2.3,10.76,10.76,0,0,0,1.06,2.72,26.08,26.08,0,0,1,1.29,4.52,20.41,20.41,0,0,0-.61,3c.1.65.48,1.95-.11,2s-1.25-1-1.25-1a.87.87,0,0,1-.45.83,1.47,1.47,0,0,1-1.48.06s-.35.66-.8.75a1.83,1.83,0,0,1-1.48-.2,1.77,1.77,0,0,1-1.11.36,1.46,1.46,0,0,1-1.24-.77s-1.11.22-1.43-.29a5,5,0,0,1-.4-1.54,18,18,0,0,1,1.4-7.73,6.85,6.85,0,0,0-.36-6Z"/><path class="cls-35" d="M735.7,410.88s.1-3.79-.9-4.59-1.11.56-1.11.56.14-1.35-1-1.54-1.14,1.43-1.14,1.43a1.06,1.06,0,0,0-1.32-.83c-1.15.21-.87,1.54-.87,1.54s-1.1-1.3-1.81-.05a5.81,5.81,0,0,0-.11,4.64s.39.6,1.48.32a1.53,1.53,0,0,0,2.38.43s1.69.93,2.3-.55C733.65,412.24,735.62,413,735.7,410.88Z"/><path class="cls-36" d="M747.15,343.07s-6.48,21.62-8.68,29.59c-.68,2.5-2.35,26.39-2.64,27.35s-8.52,2.28-8.52,2.28,1-29.88,1.09-31.51,9.08-35,11.69-36.18c2-.9,3-.16,5.46,1.67C749,338.84,747.15,343.07,747.15,343.07Z"/><rect class="cls-4" x="809.32" y="307.82" width="17.74" height="1.32" transform="translate(-35.43 498.02) rotate(-33.18)"/><path class="cls-37" d="M827.56,308.66a3.8,3.8,0,0,1-.38,1.17s-.49.58-.81,1c-.1.13-.18.26-.23.34a7.29,7.29,0,0,1-1.23,1.91c-.7.71-3.46,3-3.46,3l-2.36-2-2.45-1.1s1.37-6,2-6.7a1.73,1.73,0,0,1,.17-.21,9,9,0,0,1,1.54-1.05c.12-.1,1.38-1,1.83-.89a1.5,1.5,0,0,1,1.13.94,3.62,3.62,0,0,1,1.68,1.08,2.28,2.28,0,0,1,1.46,1.36S827.51,308,827.56,308.66Z"/><path class="cls-38" d="M741.89,490.68s-.59,4.1-.67,4.72-6.57-.36-6.57-.36l-.53-4.89S741.08,490.1,741.89,490.68Z"/><path class="cls-19" d="M741.29,494.88a17.54,17.54,0,0,0,4.06,3.55c2,1.08,5.12,1.5,6.3,2.62.85.81,3.1,4.27-5.18,4.2s-12.27.49-13.15-.83,1.28-9.82,1.28-9.82S736.56,495.31,741.29,494.88Z"/><path class="cls-38" d="M788.49,490.68s-.59,4.1-.67,4.72-6.57-.36-6.57-.36l-.53-4.89S787.68,490.1,788.49,490.68Z"/><path class="cls-19" d="M787.89,494.88a17.54,17.54,0,0,0,4.06,3.55c2,1.08,9.32,2,10.5,3.08.85.81,2.27,4.05-9.38,3.74-8.27-.21-12.27.49-13.15-.83s1.28-9.82,1.28-9.82S783.05,495.36,787.89,494.88Z"/><path class="cls-4" d="M747.28,385.22s-6.12,9.71-5.66,18.49-2.22,18.36-3.13,27.53c-1,10.22-5.21,34.41-5.37,39.88s.65,22.92.65,22.92l8.39.2s7-42.3,8.86-46.62,10.87-35.09,11.17-38.54S747.28,385.22,747.28,385.22Z"/><path class="cls-4" d="M779.45,386.54s4.6,24,5.21,29.43,1,26,1.31,29.35,2.84,43.83,3.65,48.92H778.9s-8.22-29.5-8.22-43.45-6.36-30.34-10.46-39.55-13.5-9.43-16-26.51C744.2,384.73,776,381.12,779.45,386.54Z"/><path class="cls-34" d="M757.47,303.6s8.2-3.07,12,3.18,3.41,18.74-.72,20.28-10.35.73-12.46-3.18-4-9.55-3.94-13.33S755.32,304.69,757.47,303.6Z"/><path class="cls-34" d="M767.85,327.34a7.16,7.16,0,0,0,.22,3.31c.57,1.09-10.62,1.12-10.62,1.12a73.16,73.16,0,0,0-2.64-10.95C753.09,315.81,767.85,327.34,767.85,327.34Z"/><path class="cls-39" d="M754.81,320.82s.78,1.27,3.93.78,7-4.69,8.31-5.15,1.34-1.23,1.34-1.23l.82,1.2,1.4.09s-1.28-3.75.65-5.28-2-12.15-12.11-8.61c0,0-7.77,2.14-7.49,6.55S753.08,318.62,754.81,320.82Z"/><path class="cls-40" d="M768.74,330.52s0-2.09-1-2.29-10.43-1.11-11.59-.65V330S758.4,331.38,768.74,330.52Z"/><path class="cls-34" d="M768.18,313.61c-.18-.74-2.07-2.86-2.79-.59s1.09,5.31,2.1,5.05S768.62,315.49,768.18,313.61Z"/><path class="cls-36" d="M784.42,333.67c-6.5-.85-15.68-3.15-15.68-3.15L756.17,330s-11.54,2.54-16.08,4.6c-.43.19-.43,10.29-1.62,12.93l3.77,8s2.18,15.74,2.63,22.74c.21,3.21-4.49,30.13-4.49,30.13A85.65,85.65,0,0,0,754,410.78c8.58,1,30-.34,30.14-1.35S780,371.7,779.79,369.8c-.29-2.92,1-18.43,1-18.43,2-1.53,19.37-9.6,24.11-13.81,1.27-1.13,6.63-6.34,8.15-8.15,5.4-6.37,9.82-11.85,10.36-13,.61-.68-6.06-4.29-6.65-4.49s-7.6,9.38-10.41,12.42a79.74,79.74,0,0,1-6.45,5.14S788.49,333.91,784.42,333.67Z"/><path class="cls-39" d="M755.14,304.33s-10.46.82-.33,16.49Z"/><polygon class="cls-41" points="825.98 304.17 826.84 302.86 825.26 303.07 825.98 304.17"/><path class="cls-15" d="M713.55,562.08l-.3.06.27,44.3c.84-.15,1.72-.29,2.62-.43l.48-.07c.71-.11,1.43-.21,2.17-.3l.68-.09,2.67-.31h.22c1-.11,2-.2,3-.29l.54-44.55c-.45,0-1.69.32-2.12.36l-1.7.16-.21,0h-.08l-2,.22-.6.08-.68.09-.74.09c-.49.07-1,.15-1.44.21l-.47.07-.16,0Z"/><polygon class="cls-15" points="842.25 548.81 842.26 593.12 873.73 586.05 873.71 541.75 842.25 548.81"/><polygon class="cls-16" points="636.71 543.46 636.73 587.77 670.54 594.41 670.52 550.1 636.71 543.46"/><path class="cls-16" d="M768.71,551.67l0,44.31a1.55,1.55,0,0,1,0-.31l0-.09c0-.08,0-.14.06-.21l.07-.12a1.62,1.62,0,0,1,.1-.18.6.6,0,0,1,.09-.13l.13-.18.13-.13.17-.17.15-.13.2-.17.19-.13a1.43,1.43,0,0,1,.24-.16,1.37,1.37,0,0,1,.2-.13l.29-.16a1.71,1.71,0,0,1,.23-.13l.32-.16.26-.13L772,593l.29-.13.4-.15c.1-.05.2-.08.3-.12l.46-.16.32-.12.51-.16.33-.1.67-.2.24-.06,1-.25,1.07-.25c.64-.15,1.31-.28,2-.41l.75-.14,2.24-.37h.08l2.39-.32.48-.06,2.46-.26.44,0,2.6-.22.3,0,2.8-.17h.09c1,0,2-.09,3-.11h.06c1,0,2.06,0,3.09-.06h.05c1,0,2,0,3,0h.24c1,0,2,0,2.93.06h.23c.81,0,1.62.06,2.4.11s1.55.08,2.32.14l1,.06c1.09.08,2.15.17,3.2.28l.46.05c.88.1,1.75.19,2.59.31l1.18.17c.53.07,1,.16,1.57.24.76.12,1.5.25,2.23.39l5.61.86,2,.27c.25,0,.5.07.76.09l.59.09c.85.1,1.7.2,2.58.28l.16,0c.74.08,1.51.14,2.28.21l1.13.1c1.16.09,2.34.17,3.53.24l0-44.31c-1.19-.07-2.37-.15-3.53-.24l-1.14-.11-2.27-.2q-1.39-.13-2.73-.3l-.6-.08-2.71-.37-5.61-.86-1.9-.35-.33,0c-.51-.09-1-.16-1.57-.24l-.93-.14-.25,0c-.84-.11-1.7-.21-2.57-.3l-.43,0h0c-1-.1-2.11-.19-3.2-.27l-1-.07c-.77-.06-1.53-.1-2.32-.14l-.38,0c-.66,0-1.33-.06-2-.07h-.31l-1.75,0-1.12,0h-.41l-1.47,0h-2.95l-1.53,0h-.09l-1.48,0-1.5.06H794c-.55,0-1.09,0-1.64.09l-1.14.08h-.49l-1.64.13-.77.08-.43,0-.42,0-1.62.17-.42.06-.47,0-.78.1-1.63.22h-.09l-1.79.29-.43.08-.75.13c-.25.06-.52.1-.77.15l-1.21.26-1.07.26h0l-1,.25-.25.06-.65.19-.32.11-.52.16-.32.11-.46.16-.3.12-.4.16-.29.13-.36.15-.27.13-.31.16-.24.13-.28.16-.2.13a2.49,2.49,0,0,0-.24.17l-.18.13-.21.16-.15.14-.17.16-.13.14-.13.17a1,1,0,0,0-.09.13,1.62,1.62,0,0,0-.1.18.52.52,0,0,0-.06.13,1.46,1.46,0,0,0-.07.19.62.62,0,0,1,0,.1A1.71,1.71,0,0,0,768.71,551.67Z"/><path class="cls-17" d="M651.61,558.55v44.3c0,1.83,3.47,3.65,10.32,5,13.15,2.58,33.8,2.43,46.12-.34l0-44.3c-12.32,2.76-33,2.91-46.12.33C655.07,562.2,651.61,560.37,651.61,558.55Z"/><path class="cls-15" d="M651.47,558.81l.26,44.24v.07a2.17,2.17,0,0,0,.08.43,3,3,0,0,0,.2.4,2.79,2.79,0,0,0,.31.39,4.51,4.51,0,0,0,.38.37l.47.35c.17.12.36.23.56.35l.65.33c.24.12.49.23.76.34l.88.35,1,.33c.38.13.78.25,1.22.36s1,.25,1.47.38,1.22.28,1.88.41a3.73,3.73,0,0,1,.46.09c.62.11,1.26.23,1.9.33.92.14,1.86.28,2.83.41s2.15.26,3.25.36c2.23.22,4.56.38,6.93.48l2.32.08,1.75,0,1.53,0h1.47l1.45,0,1.49,0,1.53,0,1.58-.06,1.62-.08,1.63-.1c.55,0,1.09-.08,1.64-.12l1.63-.14,1.63-.16,1.62-.17,1.66-.22,1.72-.25,1.78-.29,2-.38,1.2-.26,5.32-1-.26-44.3-5.33,1-1.19.27-2,.37-1.8.3c-.56.08-1.12.17-1.7.24l-1.67.22-1.62.18c-.54.06-1.08.11-1.64.15s-1.07.1-1.63.14-1.09.08-1.63.12l-1.63.1c-.54,0-1.08.06-1.62.07s-1.05,0-1.58.06l-1.52,0-1.51,0h-4.45l-1.75,0-2.31-.08c-2.37-.1-4.69-.26-6.92-.47-1.12-.11-2.2-.23-3.26-.37s-1.91-.26-2.82-.41l-1.91-.33-.47-.1c-.65-.12-1.27-.26-1.86-.4s-1-.24-1.49-.37l-1.22-.36-1-.35a8.78,8.78,0,0,1-.87-.33c-.28-.11-.53-.23-.76-.34l-.66-.34a6,6,0,0,1-.56-.35c-.18-.12-.33-.24-.48-.35a3.34,3.34,0,0,1-.38-.37c-.11-.13-.21-.25-.3-.38a1.51,1.51,0,0,1-.19-.41A1.11,1.11,0,0,1,651.47,558.81Z"/><polygon class="cls-15" points="759.06 567.48 759.08 611.79 790.54 604.73 790.52 560.42 759.06 567.48"/><path class="cls-18" d="M636.71,543.46l33.82,6.64a20.19,20.19,0,0,1-6,2.58l-4.08,1.18c-12.32,2.77-11.65,7.1,1.5,9.68s33.8,2.43,46.12-.33l5.33-.94c3.53-.62,7.54-1.1,11.86-1.43l33.83,6.64,31.46-7.06a26.87,26.87,0,0,0-7.06-2.64L779,556.67c-13.15-2.58-13.82-6.92-1.5-9.68s33-2.92,46.12-.34l5.61.86c3.91.59,8.3,1,13,1.3l31.46-7.06-122.35-24Z"/><polygon class="cls-16" points="725.23 560.84 725.25 605.15 759.08 611.79 759.06 567.48 725.23 560.84"/><rect class="cls-19" x="718.89" y="15" width="70" height="65" rx="5.31"/><path class="cls-42" d="M763.46,23s2.68,5.41-1.75,11.91S747.78,46.61,756,53.26c0,0-1.13-.67,7-9S774.49,29.25,763.46,23Z"/><path class="cls-43" d="M761.75,45.47l.15-.16"/><path class="cls-44" d="M761.75,45.47C755,52.63,756,53.24,756,53.24"/><path class="cls-45" d="M761.75,45.47h0"/><path class="cls-46" d="M761.75,45.47c.85,1.28,3,1.42,6.2,2.73,4.64,1.89,2.09,9.35,2.09,9.35s.35-3.34-6.35-3.3-7.75-1-7.75-1"/><path class="cls-47" d="M763.69,54.25c-.59,0-1.13,0-1.63,0,.32,1.06.35,3.22-3.43,5.45-5.29,3.13-11.68,5.84-10.51,14.71,0,0,1.17-1.1,7.45-4.74s13.12-5.49,14.47-12.1C770,57.55,770.39,54.22,763.69,54.25Z"/><path class="cls-48" d="M760.35,23.87A18.86,18.86,0,0,1,750.27,39l-.22.12C742,43.56,740.36,50,740.12,51.27l-.07.08a.25.25,0,0,0,0-.08c-.28-1.74-1.87-13.68,6.77-19A44.88,44.88,0,0,0,760.13,20c.15-.21.22-.33.22-.33A10.59,10.59,0,0,1,760.35,23.87Z"/><path class="cls-49" d="M750.26,39l0,0-.24.3c-2.33,3.06-2.5,6.49-2.86,15.78-.47,12.18-9.81,16.23-10.09,16.36.16-.18,2.89-3.14,3-14.54,0-2.26,0-4.08,0-5.55l0-.21.1-.12c.37-1.67,2.19-7.71,9.89-11.94Z"/><polygon class="cls-50" points="750.27 39 750.23 39.04 750.26 39 750.27 39"/><path class="cls-51" d="M936.3,527.09a30.6,30.6,0,0,0-4.8,5.62c-2.27,3.4-8.3,3.58-8.56,8.23s8.19,4.79,12.63,3.28,5.11-6.05,7.79-7.19,4.08-2,3.88-4.27a26.92,26.92,0,0,0-1.7-5.81,18.8,18.8,0,0,1-2.64.64A22.47,22.47,0,0,1,936.3,527.09Z"/><path class="cls-36" d="M966.72,401.13s-1.71,10.11-3.08,16.79h0a37.63,37.63,0,0,1-1.37,5.53c-.39.85-3.58,4.28-7.49,8.3-6.86,7.06-15.91,15.95-15.91,15.95L935.32,441s8-9.43,13.51-15.72c2.52-2.91,4.49-5.15,4.85-5.47,1.14-1,2.46-11.08,4.33-19.36a33.46,33.46,0,0,1,5.58-12.86Z"/><path class="cls-34" d="M954.78,431.75c-6.86,7.06-15.91,15.95-15.91,15.95L935.32,441s8-9.43,13.51-15.72A11.45,11.45,0,0,1,954.78,431.75Z"/><path class="cls-51" d="M998.75,524.31s2.33,2.58,3.7,4.14,6.65,4.35,6.68,9c0,5-3.89,4.58-7.38,4.4A9.66,9.66,0,0,1,994,536.4c-1.47-2.85-5.38-3.6-5.65-5.89s1.81-6.43,1.81-6.43Z"/><path class="cls-15" d="M990.57,519.8l-.45,4.28s7.28,3.18,8.63.23l-.32-3.81Z"/><path class="cls-15" d="M936.69,524l-.39,3.1a15.28,15.28,0,0,0,9.24-.14l.1-2.76Z"/><path class="cls-36" d="M999.16,446.33c.25.9-46.61,0-46.61,0s13-9.44,13.8-12-3.3-17.64-3.84-22.56c-.43-3.94-1.51-21.56,1.08-24.25s12.49-5.76,12.49-5.76l14.24.53a22.31,22.31,0,0,1,4,1.27c1.68.78,11.29,4.2,12.85,9s-9.59,20.23-9.59,20.23,0,.7-.05,1.84h0c0,1.51-.11,3.82-.17,6.31-.08,3.24-.14,6.8-.14,9.41A93.12,93.12,0,0,0,999.16,446.33Z"/><path class="cls-52" d="M999.16,446.33s6.38,9.36,6.46,15.75-2.36,24.12-2.54,27.63-3.48,32.77-3.48,32.77-2.55,2.37-10.2-.61c0,0-1.69-27.74-1.87-30.71s-.18-16.65-1.89-18.64-12.06-8.19-13.41-9.36-24.88,4.45-27.34,5.09c-6.38,1.65-3.47,12.76-2.06,17.74,2.36,8.33,4.42,38.41,4.42,38.41s-4.54,1.93-12.15.3c0,0-15-54.32-15.44-59.72s-.71-14.3,36.13-21.08Z"/><path class="cls-34" d="M980,350.85s-12.37-2.78-9.55,12.77,5.8,16.79,13.26,13.57,6.79-13.19,7.17-18.08S983.93,351,980,350.85Z"/><path class="cls-34" d="M976.71,385.8s5.48,5.8,14.13.52c0,0-1.93-12.58-.91-18.7s-11.29,9.49-11.29,9.49c.16.09.26.67.29,1.5a17.45,17.45,0,0,1-.13,2.5C978.55,383.14,977.91,385.3,976.71,385.8Z"/><path class="cls-34" d="M986.61,361.56c.17-1.37,2.88-1.87,3.1.18s-1.23,5.68-2.26,5.32S986.39,363.45,986.61,361.56Z"/><path class="cls-4" d="M990.26,367.1s-.31-4.91-2.11-5.06-2.06,1.82-2.06,1.82l-1.81.34s.57-4.29-1.22-5-11.58,2.36-13,1.1-.76-10,1.83-11.17,9.77-3.87,15-.31c0,0,4.09-.47,4.7,2.84S991.38,364.64,990.26,367.1Z"/><path class="cls-53" d="M978.8,381.11c8.93-2.76,9.6-8.13,9.61-8.22-2.94,5.06-9.48,5.72-9.48,5.72A17.45,17.45,0,0,1,978.8,381.11Z"/><path class="cls-34" d="M994.5,383.67s-6.54,13-17.1,12.18-1.8-13.93-1.32-14.05S986.91,379.1,994.5,383.67Z"/><path class="cls-36" d="M947.19,445.67s32.36,4,52,.66l-37.47-4.68S961.47,442.61,947.19,445.67Z"/><path class="cls-36" d="M1008.84,432.33c-.48.56-6.84,3.12-14,5.89h0c-9.82,3.78-20.9,7.36-20.9,7.36l-2.51-5.4s11.59-6.31,19.43-10.73c3.7-2.09,6.57-3.75,7-4.14,1.26-1.2,1.59-3.12.66-6.48s-3.06-18.78-3.3-20.58.6-6.61,5.1-6.85,6.79,1,6.79,1,1.13.46,2,11.39S1010,431,1008.84,432.33Z"/><path class="cls-54" d="M997.56,414.68h0c0,1.51-.11,3.82-.17,6.31-4.39-10.76-1.85-19.36-1.81-19.5C995.11,404.41,997.52,414.53,997.56,414.68Z"/><path class="cls-54" d="M963.64,417.92h0a37.63,37.63,0,0,1-1.37,5.53c-1.5-7.26-.15-16.56-.15-16.56A94.66,94.66,0,0,0,963.64,417.92Z"/><path class="cls-34" d="M959,441.24a19.61,19.61,0,0,0-2.32,1.29c-.48.4-2.44,1.86-2.91,2.2s.71,1.33,4.2-.19S959,441.24,959,441.24Z"/><path class="cls-55" d="M969.11,444.36v2.51a.33.33,0,0,1-.25.33l-19.71,6.27a.37.37,0,0,1-.18,0l-27.78-6.27a.36.36,0,0,1,.08-.71h7.85l17.41,3.93L949,451a.37.37,0,0,0,.18,0l14.05-4.47,5.66-1.8A.34.34,0,0,0,969.11,444.36Z"/><path class="cls-56" d="M969.11,444.36a.34.34,0,0,1-.25.34l-5.66,1.8L949.15,451a.37.37,0,0,1-.18,0l-2.44-.55-17.41-3.93-7.93-1.79a.36.36,0,0,1,.08-.71h47.48A.35.35,0,0,1,969.11,444.36Z"/><path class="cls-57" d="M949.23,452.45l-12.66-34.57a1.34,1.34,0,0,0-1.28-.88l-41.26.67a1.34,1.34,0,0,0-1.23,1.81l12.06,31.83a1.32,1.32,0,0,0,1.18.86l41.87,2.07A1.33,1.33,0,0,0,949.23,452.45Z"/><path class="cls-19" d="M922.6,435.07c1.34,2.69.83,5.67-1.15,6.66s-4.67-.39-6-3.08-.84-5.68,1.14-6.66S921.25,432.38,922.6,435.07Z"/><path class="cls-58" d="M917.83,432.94a1.93,1.93,0,0,1,.91,1.68c0,1.25-.67,2.81,1,2.88,0,0-.2,0,0-1.81S919.83,432.69,917.83,432.94Z"/><path class="cls-59" d="M919.74,436v0"/><path class="cls-60" d="M919.74,436c-.18,1.55,0,1.54,0,1.54"/><path class="cls-61" d="M919.74,436h0"/><path class="cls-62" d="M919.74,436c.23.08.51-.1,1-.24.77-.2,1.15,1,1.15,1s-.27-.45-1.12.19-1.09.59-1.09.59"/><path class="cls-63" d="M920.82,436.89l-.21.16c.14.1.35.37.08,1-.38.9-.94,1.85,0,2.87a9.61,9.61,0,0,1,.5-1.31c.46-1.06,1.16-1.95.7-2.92C921.94,436.71,921.67,436.26,920.82,436.89Z"/><path class="cls-64" d="M917.52,433.34a3,3,0,0,1,.14,2.88v0a3,3,0,0,0-.12,2.49h0c-.2-.2-1.53-1.57-.93-3.07a7.12,7.12,0,0,0,.53-2.82v-.06A1.53,1.53,0,0,1,917.52,433.34Z"/><path class="cls-65" d="M917.66,436.22h0v.06c0,.61.3,1.07,1.13,2.28a2.86,2.86,0,0,1,.26,3s.08-.67-1-2.13l-.52-.71v0a3,3,0,0,1,.13-2.46Z"/><polygon class="cls-66" points="917.66 436.22 917.66 436.23 917.66 436.22 917.66 436.22"/><rect class="cls-19" x="664.21" y="281.94" width="31.35" height="29.11" rx="5.31"/><path class="cls-67" d="M684.17,285.53a5.46,5.46,0,0,1-.78,5.33c-2,2.91-6.24,5.24-2.56,8.22,0,0-.51-.3,3.11-4S689.11,288.32,684.17,285.53Z"/><path class="cls-68" d="M683.41,295.59l.07-.07"/><path class="cls-69" d="M683.41,295.59c-3,3.21-2.58,3.48-2.58,3.48"/><path class="cls-70" d="M683.41,295.59h0"/><path class="cls-71" d="M683.41,295.59c.38.58,1.33.64,2.77,1.22,2.08.85.94,4.19.94,4.19s.16-1.49-2.84-1.48-3.47-.47-3.47-.47"/><path class="cls-72" d="M684.28,299.52h-.73c.14.47.15,1.44-1.54,2.44-2.37,1.4-5.23,2.61-4.71,6.58a25,25,0,0,1,3.34-2.12c2.82-1.63,5.88-2.46,6.48-5.42C687.12,301,687.28,299.51,684.28,299.52Z"/><path class="cls-73" d="M682.78,285.92a8.44,8.44,0,0,1-4.51,6.77l-.1.06a8.35,8.35,0,0,0-4.45,5.44l0,0v0c-.13-.78-.84-6.13,3-8.52a20.1,20.1,0,0,0,6-5.48l.1-.15A4.59,4.59,0,0,1,682.78,285.92Z"/><path class="cls-74" d="M678.26,292.69v0l-.11.13c-1,1.37-1.12,2.91-1.28,7.07a8.18,8.18,0,0,1-4.52,7.33c.08-.08,1.3-1.4,1.32-6.51,0-1,0-1.83,0-2.49v-.09l0-.06a8.41,8.41,0,0,1,4.43-5.34Z"/><polygon class="cls-75" points="678.26 292.69 678.25 292.71 678.26 292.69 678.26 292.69"/><path class="cls-76" d="M1209.26,321.94s-9.29,19.77-11,20.16-19.57-1-19.57-1l-.47,4.55s25.25,6.77,26.62,4.79,11.67-21.69,11.67-21.69S1215.9,321.91,1209.26,321.94Z"/><path class="cls-9" d="M1166.68,343.78l.12.05,11-15.1-1-.51-.19-.1-.81-.44-.25-.14-1-.56-.08-.05-1.1-.66-11.33,15c.16.1.65.31.81.41l.62.37.08,0,0,0,.74.42.22.13.25.14.28.15.53.29a1,1,0,0,1,.18.1l.07,0Z"/><polygon class="cls-9" points="1119.67 316.08 1130.75 301.03 1118.3 295.55 1107.22 310.6 1119.67 316.08"/><polygon class="cls-16" points="1188.11 369.33 1199.19 354.28 1189.37 343.57 1178.29 358.61 1188.11 369.33"/><path class="cls-16" d="M1145.35,333.51l11.08-15.05a.43.43,0,0,1-.09.1l0,0-.08.06,0,0-.08,0-.06,0-.09,0h-.07l-.1,0h-.66l-.11,0-.15,0-.12,0-.16,0-.13,0-.17-.05-.14,0-.19-.06-.14,0-.21-.08-.14,0-.28-.11-.09,0-.4-.16-.42-.18-.78-.36-.29-.14-.85-.44h0l-.89-.49-.18-.1-.9-.53-.16-.1c-.31-.18-.62-.38-.93-.58l-.11-.06-1-.65,0,0-1-.71h0c-.36-.25-.72-.5-1.07-.76h0l-1-.75-.07-.07-1-.75-.08-.06-.79-.64-.75-.63-.32-.26c-.35-.3-.68-.6-1-.9,0,0-.09-.09-.15-.13l-.8-.76-.36-.35-.47-.47q-.35-.35-.66-.69l-1.69-1.7-.59-.58-.24-.22-.18-.18-.8-.74,0-.05-.72-.64-.36-.31c-.37-.33-.75-.65-1.14-1l-11.08,15.05c.39.32.77.64,1.14,1l.36.31.72.64.85.79.18.17c.29.28.57.54.83.81l1.69,1.69.56.6.1.1.47.47.28.28.08.07c.26.25.52.5.8.75l.13.12,0,0,1,.89.32.27.75.63.12.1.66.53.09.07h0l.58.45.37.29.14.1.5.38.46.34,0,0,.52.37.52.37,0,0,.52.35.52.36,0,0h0l.57.38.41.26.1.06.07.05.59.36.28.17.16.1.15.09.6.35.15.08.17.1.29.17.61.33h0l.68.35.16.08.29.15.3.14.47.21.43.19h0l.39.15.1,0,.27.09.13.05.22.07.14.05.19,0,.14,0,.17.05.13,0,.16,0,.12,0,.15,0,.11,0h.75l.08,0,.09,0,.06,0,.08,0,.05,0,.08-.05,0,0Z"/><path class="cls-17" d="M1186.83,360.48l11.08-15.05c.46-.62-.26-2.1-2.25-4.27a56.14,56.14,0,0,0-15.75-11.43l-11.08,15a56.11,56.11,0,0,1,15.74,11.42C1186.56,358.38,1187.28,359.86,1186.83,360.48Z"/><path class="cls-9" d="M1186.94,360.43l11-15.09,0,0a.89.89,0,0,0,.08-.17.57.57,0,0,0,0-.18v-.21c0-.07,0-.14,0-.22a2.17,2.17,0,0,0-.07-.24l-.11-.26c0-.09-.09-.18-.13-.28s-.11-.2-.18-.3-.14-.22-.21-.34l-.26-.37q-.15-.21-.33-.42l-.4-.5-.54-.61c0-.05-.09-.09-.13-.15l-.56-.58c-.28-.28-.56-.57-.86-.85s-.67-.63-1-.94c-.7-.63-1.45-1.27-2.23-1.89l-.76-.61-.59-.45-.51-.39-.5-.37-.5-.36-.51-.36-.53-.37-.55-.38-.57-.38-.58-.37c-.19-.13-.39-.25-.59-.37l-.58-.36-.6-.36-.59-.34-.62-.34-.64-.35-.68-.34-.76-.37-.48-.21-2-1-11,15.1,2,1,.47.21.75.36.69.35.64.34.62.35.6.34.59.36.59.36.58.37.58.37.57.38.55.38.53.36.51.37.5.36.5.37.51.39.59.45.76.6c.78.63,1.53,1.27,2.23,1.9.35.31.69.63,1,.94s.58.56.85.84l.57.59.13.15.54.6.41.5.32.43.26.37.21.33a3.27,3.27,0,0,1,.17.31,2.43,2.43,0,0,1,.14.28,2.77,2.77,0,0,1,.1.26,1.13,1.13,0,0,1,.08.24,1.7,1.7,0,0,1,0,.22,1.33,1.33,0,0,1,0,.2.58.58,0,0,1,0,.19A.89.89,0,0,1,1186.94,360.43Z"/><polygon class="cls-9" points="1152.58 330.56 1163.66 315.51 1151.21 310.03 1140.13 325.08 1152.58 330.56"/><path class="cls-15" d="M1188.11,369.33l-9.82-10.72a8.52,8.52,0,0,1,2.69.64l1.68.62c4.87,2.14,5.73.5,1.91-3.67a56.11,56.11,0,0,0-15.74-11.42l-2-1c-1.35-.67-2.84-1.51-4.39-2.48l-9.82-10.72-12.45-5.48a11,11,0,0,0,1.74,2.66l1.23,1.49c3.81,4.17,3,5.81-1.92,3.66a56.23,56.23,0,0,1-15.74-11.43l-1.69-1.69c-1.18-1.18-2.56-2.43-4.08-3.69l-12.45-5.48,35.53,38.77Z"/><polygon class="cls-16" points="1162.4 341.28 1173.49 326.23 1163.66 315.51 1152.58 330.56 1162.4 341.28"/><path class="cls-51" d="M1278.29,484.64a9.84,9.84,0,0,0-3.28,3.43c-1.48,2.54-8.16,4.2-9.17,4.75s-2.36,3,2.13,3.12,9.45,1.22,12-1.07c3.24-2.93,7.61-4.35,7.61-6.71s-3.23-6-3.23-6Z"/><path class="cls-51" d="M1214.81,486.33a16.8,16.8,0,0,0-3.93,2.74c-2.13,1.94-9.54,1.67-10.9,3.29,0,0-1.89,1.7,2,2.85s12.18.67,15.51.89c1.14.08,6.55.42,6.9-.16.25-.41.22-3.19-.75-5.87a13.65,13.65,0,0,0-1.19-2.79Z"/><path class="cls-9" d="M1277.61,483.4l.68,1.24s4.47-1.27,6-2.48l-.68-1.38Z"/><path class="cls-9" d="M1215.15,484.67l-.34,1.66a16.35,16.35,0,0,0,7.66.95l.25-1.57Z"/><path class="cls-34" d="M1196.42,349.19a66.93,66.93,0,0,0-6.91-1.05c-2.19-.11-5.41-2.9-7.67-2.85s-7.56,3.25-7.56,4.28a2.77,2.77,0,0,0,1,2.13,20.47,20.47,0,0,1,1.9,2.13c1,1.25,8.62.17,11.69.17s6.21-.09,6.21-.09Z"/><path class="cls-51" d="M1284.73,480.49c-.33.22-8.32,3.84-9,3.17-2.33-2.32-15.35-37.2-16.67-38.51s-4.5-9.74-6.76-13.23c-2.63-4.06-15.91-27.87-17.77-27.21s-3.4,26.77-4.82,30.83-1.69,7.62-1.54,14.68c.12,5.64-4,36.49-4,36.49l-10.86-1.24s.57-36.89.69-38a70.76,70.76,0,0,0,0-9.7c0-.93-1.93-28.75-1.27-55.91,7,5.19,32.16,3.57,36.81,1.92,2.82,6.56,7.79,18.11,10,23.48,3.44,8.21,4.71,22.83,12.31,35.62C1280.09,456.47,1285.06,480.27,1284.73,480.49Z"/><path class="cls-36" d="M1250.38,383.26c0,.16-.27.33-.74.49-4.65,1.65-29.84,3.27-36.81-1.92a.71.71,0,0,1-.14-.1c-1.38-1.08-.76-15.64-1.17-20.7,0-.28,0-.52-.08-.74s0-.22,0-.34c-.63-4.09-3.23-11.73-4.44-17.27-1.24-5.7,1.33-18.11,2.24-20.6s8.14-6.21,8.14-6.21l11.78-1.09s5.67,1.78,12.8,4.37c7.65,2.79,4.56,10.75,4.52,23.14,0,12.59-1.2,20.1-.8,23.22C1246.61,373.28,1250.49,381.51,1250.38,383.26Z"/><path class="cls-34" d="M1217.34,309.1s.87,4.34,0,6.77-1.51,9.66,2.87,10,8.58-7,8.91-11.13a22.44,22.44,0,0,1-2.26-14C1228.17,292.87,1217.34,309.1,1217.34,309.1Z"/><path class="cls-36" d="M1245.69,331.92S1233.49,362.09,1231,363s-22.6-3.51-25.67-4.53-14.39-3.06-14.39-3.06,1.12-6,2.51-7.24c0,0,20.38,2,26.44,3.06s6.21-2.19,9.5-9.79,6.21-15.41,6.58-15.92,2.92-5.41,7.59-2.78S1245.69,331.92,1245.69,331.92Z"/><path class="cls-34" d="M1221.94,298.5c.18-.95,1.38-5.33,3.87-3s-1.44,7.09-2.61,7.15C1222.24,302.72,1221.06,303.08,1221.94,298.5Z"/><path class="cls-53" d="M1217.33,315.88c1.91-.36,6.81-1.7,7.89-6.23s-4.81-2.33-7.44-1.21l-.44.66s.87,4.34,0,6.77Z"/><path class="cls-34" d="M1209.83,288.92s-3.91,7.44.2,17.44,14.66,10.27,17.27-2.18.21-17.32-4.56-18.59S1212.36,284.29,1209.83,288.92Z"/><path class="cls-4" d="M1221.94,298.5l-1.29,2.49h-1.76s1.91-3.79.91-4.61-7.25-.12-10.88-1.55c0,0-.68.18-.7.51s-2-3.79-.15-7.3,13.33-5.48,16.84-2c0,0,4.92.42,4.93,4.34a46.89,46.89,0,0,1-2.6,14.35s-1.49-5.48-2.67-5.57A11.4,11.4,0,0,1,1221.94,298.5Z"/><path class="cls-77" d="M1242.66,339.24c-.59,1.52-10.13,25.76-11.1,25.76-.71,0-13-2.51-20-4,0-.28,0-.52-.08-.74s0-.22,0-.34c7.12,1.59,17.85,3.64,19.61,3S1238.88,348.23,1242.66,339.24Z"/><path class="cls-19" d="M1227.19,132.47a21.26,21.26,0,0,0-14-8.37,39.54,39.54,0,0,0-60.11-1.62,25.53,25.53,0,0,0-28.86,10.22,6.6,6.6,0,0,0,5.46,10.3h92.17A6.6,6.6,0,0,0,1227.19,132.47Z"/><path class="cls-34" d="M971.4,440.18,969,441.4s.55,3.83,1.87,5l2.71-.69S973,441.5,971.4,440.18Z"/><path class="cls-34" d="M994.81,438.22h0c-9.82,3.78-21.25,7.48-21.25,7.48l-2.16-5.52s11.59-6.31,19.43-10.73C990.83,429.45,993.68,430.84,994.81,438.22Z"/><path class="cls-34" d="M969.51,441.48s-2.88-.45-4.86-.91c-1.54-.36-5.36.14-6.34,1.12s-4.07,7.86-4.65,8.28.3,1.39,1.33.9c0,0,.94,3,3.27,1.88s3.91-3.58,5.13-4,8.33-2.62,8.33-2.62S971.34,440.75,969.51,441.48Z"/></g></g></svg>