<svg xmlns="http://www.w3.org/2000/svg" viewBox="0 0 140.52 99.5"><defs><style>.cls-1{fill:#f7931e;}.cls-2{fill:#e54a55;}</style></defs><title>icon-webdev</title><g id="Layer_2" data-name="Layer 2"><g id="Layer_1-2" data-name="Layer 1"><path class="cls-1" d="M139.32,77.72a1.78,1.78,0,0,0,1.18-1.63c0-.26,0-.53,0-.79s0-.52,0-.78a1.76,1.76,0,0,0-1.18-1.63l-4.67-1.66a1.83,1.83,0,0,1-1.07-1.09q-.18-.48-.39-.93a1.82,1.82,0,0,1,0-1.53l2.12-4.49a1.77,1.77,0,0,0-.31-2c-.36-.38-.73-.76-1.12-1.11a1.79,1.79,0,0,0-2-.32l-.48.23-.74.36-1.56.73-1.61.77-.86.41a13.77,13.77,0,0,0-1.7-.77,1.81,1.81,0,0,1-1.08-1.07l-1.67-4.68a1.78,1.78,0,0,0-1.62-1.18H119a1.77,1.77,0,0,0-1.62,1.18l-1.67,4.68a1.81,1.81,0,0,1-1.08,1.07c-.32.12-.63.25-.94.39a1.78,1.78,0,0,1-1.53,0l-4.48-2.13a1.79,1.79,0,0,0-2,.32c-.39.35-.76.73-1.12,1.11a1.77,1.77,0,0,0-.31,2l1.49,3.14.51,1.09.13.27a1.74,1.74,0,0,1,0,1.48l-.15.33-.09.22-.18.47a1.74,1.74,0,0,1-1.06,1l-4.68,1.67a1.76,1.76,0,0,0-1.17,1.63c0,.26,0,.52,0,.78s0,.53,0,.79a1.78,1.78,0,0,0,1.17,1.63l4.68,1.66A1.8,1.8,0,0,1,106,80.47a16.1,16.1,0,0,0,.76,1.69l-.25.55-.28.58-1.1,2.31-.13.27-.73,1.55a1.77,1.77,0,0,0,.32,2c.36.39.73.76,1.12,1.12a1.77,1.77,0,0,0,2,.31l4.48-2.13a1.82,1.82,0,0,1,1.53,0c.31.14.62.28.94.4a1.81,1.81,0,0,1,1.08,1.07l1.67,4.67A1.77,1.77,0,0,0,119,96l.78,0,.79,0a1.78,1.78,0,0,0,1.62-1.18l1.67-4.67a1.81,1.81,0,0,1,1.08-1.07c.32-.12.63-.26.94-.4a1.82,1.82,0,0,1,1.53,0l4.48,2.13a1.77,1.77,0,0,0,2-.31c.39-.36.76-.73,1.12-1.12a1.77,1.77,0,0,0,.31-2l-2.12-4.48a1.82,1.82,0,0,1,0-1.53q.21-.47.39-.93a1.8,1.8,0,0,1,1.07-1.09Zm-15.14,5.57a9.11,9.11,0,0,1-8.79,0,6.67,6.67,0,0,1-.91-.58,9.09,9.09,0,0,1-1.9-13,1.24,1.24,0,0,1,.18-.22,8.75,8.75,0,0,1,2.45-2.08,9.07,9.07,0,0,1,9.15,0,8.75,8.75,0,0,1,2.45,2.08h.69v1a8.94,8.94,0,0,1,1.41,4.85A9.12,9.12,0,0,1,124.18,83.29Z"/><path class="cls-2" d="M93.84,85H15.25A15.25,15.25,0,0,1,0,69.75V15.25A15.25,15.25,0,0,1,15.25,0h99.5A15.25,15.25,0,0,1,130,15.25V46.11a2.5,2.5,0,0,1-2.5,2.5h0a2.5,2.5,0,0,1-2.5-2.5V15.25A10.25,10.25,0,0,0,114.75,5H15.25A10.25,10.25,0,0,0,5,15.25v54.5A10.25,10.25,0,0,0,15.25,80H93.84a2.5,2.5,0,0,1,2.5,2.5h0A2.5,2.5,0,0,1,93.84,85Z"/><rect class="cls-1" x="44.5" y="94.5" width="42" height="5" rx="2.5"/><path class="cls-1" d="M52.93,46.16l-10-10a2,2,0,0,1,0-2.89l10-10a2,2,0,0,1,2.89,0h0a2.05,2.05,0,0,1,0,2.9l-8,8a.84.84,0,0,0,0,1.19l8,8a2,2,0,0,1,0,2.89h0A2,2,0,0,1,52.93,46.16Z"/><path class="cls-1" d="M77.28,46.16l10-10a2,2,0,0,0,0-2.89l-10-10a2,2,0,0,0-2.89,0h0a2.05,2.05,0,0,0,0,2.9l8,8a.84.84,0,0,1,0,1.19l-8,8a2,2,0,0,0,0,2.89h0A2,2,0,0,0,77.28,46.16Z"/><rect class="cls-1" x="58.7" y="31.5" width="13.6" height="5" rx="2.5" transform="translate(13.74 86.6) rotate(-72.9)"/><rect class="cls-2" x="14.5" y="64" width="80" height="5" rx="2.5"/><circle class="cls-1" cx="56.5" cy="89.5" r="3"/><circle class="cls-1" cx="73.5" cy="89.5" r="3"/></g></g></svg>