<svg xmlns="http://www.w3.org/2000/svg" viewBox="0 0 114.27 112.21"><defs><style>.cls-1{fill:#f7931e;}.cls-2{fill:#e54a55;}</style></defs><title>icon-multimedia</title><g id="Layer_2" data-name="Layer 2"><g id="Layer_1-2" data-name="Layer 1"><rect class="cls-1" x="2" y="39.45" width="7" height="41"/><path class="cls-1" d="M112.11,96.84,86.5,111.62a4.33,4.33,0,0,1-6.5-3.75V78.3a4.33,4.33,0,0,1,6.5-3.75l8.23,4.75,3.41,2,3.41,2,3.41,2,7.15,4.12A4.34,4.34,0,0,1,112.11,96.84Z"/><path class="cls-2" d="M97.28,17.07H61.44V12a1.72,1.72,0,0,0-1.71-1.71H52.91V5.12A1.71,1.71,0,0,0,51.2,3.41H25.61V1.71A1.72,1.72,0,0,0,23.9,0h0a1.72,1.72,0,0,0-1.71,1.71V5.12A1.72,1.72,0,0,0,23.9,6.83H49.5v3.41H42.67a1.7,1.7,0,0,0-1.7,1.7v5.13H5.12A5.12,5.12,0,0,0,0,22.19V97.28a5.12,5.12,0,0,0,5.12,5.12H75.73a1.7,1.7,0,0,0,1.71-1.71h0A1.7,1.7,0,0,0,75.73,99H5.13a1.72,1.72,0,0,1-1.71-1.71V88.74H13.66v5.13a1.7,1.7,0,0,0,1.7,1.7H75.73a1.7,1.7,0,0,0,1.71-1.71h0a1.7,1.7,0,0,0-1.71-1.7H17.07V27.31h75.1v45.5A1.69,1.69,0,0,0,93,74.28h0a1.7,1.7,0,0,0,2.56-1.47V68.26H99v8.49a1.69,1.69,0,0,0,.85,1.47h0a1.7,1.7,0,0,0,2.56-1.47V22.19A5.12,5.12,0,0,0,97.28,17.07Zm-52.9-3.42H58v3.42H44.38ZM3.42,41H6.83V51.2H3.42Zm0,13.65H6.83V64.85H3.42Zm0,13.65H6.83V78.51H3.42ZM13.66,85.33H3.42V81.92H8.54a1.71,1.71,0,0,0,1.71-1.71v-41a1.72,1.72,0,0,0-1.71-1.71H3.42V34.13H13.66ZM99,64.85H95.58V54.61H99ZM99,51.2H95.58V41H99Zm0-13.66H95.58V25.6a1.72,1.72,0,0,0-1.71-1.71H15.36a1.71,1.71,0,0,0-1.7,1.71v5.12H3.42V22.19a1.7,1.7,0,0,1,1.71-1.71H97.28A1.71,1.71,0,0,1,99,22.19Z"/><path class="cls-2" d="M29,30.72H20.49v8.53A1.7,1.7,0,0,0,22.19,41h0a1.71,1.71,0,0,0,1.71-1.71V34.13H29a1.71,1.71,0,0,0,1.71-1.7h0A1.71,1.71,0,0,0,29,30.72Z"/><path class="cls-2" d="M28.16,75,31,77.86l2.83,2.83-7.2,2.77a1,1,0,0,1-1.23-1.22Z"/><path class="cls-2" d="M69.52,54.17h0a2.5,2.5,0,0,0,3.54,0L86.85,40.38,80.48,34,77,37.56l2.83,2.82L69.52,50.64A2.5,2.5,0,0,0,69.52,54.17Z"/><rect class="cls-1" x="21.32" y="50.53" width="66" height="8" transform="translate(-22.65 54.38) rotate(-45)"/><circle class="cls-2" cx="78.5" cy="68.95" r="2.5"/><circle class="cls-2" cx="71.5" cy="75.95" r="2.5"/><rect class="cls-2" x="43" y="12.45" width="17" height="6"/></g></g></svg>