<svg xmlns="http://www.w3.org/2000/svg" viewBox="0 0 138.5 117.42"><defs><style>.cls-1{fill:#f7931e;}.cls-2{fill:#e54a55;}.cls-3{fill:#fff;}</style></defs><title>icon-webdesign</title><g id="Layer_2" data-name="Layer 2"><g id="Layer_1-2" data-name="Layer 1"><rect class="cls-1" x="44.5" y="111.42" width="42" height="5" rx="2.5"/><rect class="cls-2" x="14.5" y="80.92" width="80" height="5" rx="2.5"/><circle class="cls-1" cx="56.5" cy="106.42" r="3"/><circle class="cls-1" cx="73.5" cy="106.42" r="3"/><path class="cls-2" d="M130.51,117.42h-24a8,8,0,0,1-8-8v-56a8,8,0,0,1,8-8h24a8,8,0,0,1,8,8v56A8,8,0,0,1,130.51,117.42Zm-24-67a3,3,0,0,0-3,3v56a3,3,0,0,0,3,3h24a3,3,0,0,0,3-3v-56a3,3,0,0,0-3-3Z"/><path class="cls-2" d="M96.32,99.67a2.6,2.6,0,0,1-2.63,2.25H15.25A15.25,15.25,0,0,1,0,86.67V32.17A15.25,15.25,0,0,1,15.25,16.92H79.87A2.5,2.5,0,0,1,82,20.67h0a2.5,2.5,0,0,1-2.17,1.25H15.25A10.25,10.25,0,0,0,5,32.17v54.5A10.25,10.25,0,0,0,15.25,96.92H93.84A2.5,2.5,0,0,1,96.32,99.67Z"/><path class="cls-2" d="M130,32.17v9.25a2.5,2.5,0,0,1-.73,1.77,2.45,2.45,0,0,1-1.62.72A2.6,2.6,0,0,1,125,41.26V32.17a10.25,10.25,0,0,0-10.25-10.25h-3.32a2.5,2.5,0,0,1-2.16-3.75h0a2.47,2.47,0,0,1,2.16-1.25h3.32A15.25,15.25,0,0,1,130,32.17Z"/><rect class="cls-2" x="101" y="106.92" width="35" height="8"/><rect class="cls-1" x="107.5" y="56.01" width="22" height="21" rx="1.8"/><path class="cls-3" d="M122.74,61.88l-5.24,5.24-3.24-3.24a.37.37,0,0,0-.52,0l-4.59,4.6.7.7,3.89-3.89a.37.37,0,0,1,.52,0l2.53,2.54-1.64,1.65.7.7,1.65-1.64,3.65,3.64.7-.7-3.64-3.65,4.53-4.54a.37.37,0,0,1,.52,0l3.89,3.89.7-.7-4.59-4.6A.37.37,0,0,0,122.74,61.88Z"/><circle class="cls-3" cx="112.5" cy="61.83" r="1"/><rect class="cls-1" x="14.8" y="36.57" width="41" height="30.18" rx="1.8"/><path class="cls-3" d="M42.32,44l-8.67,8.67-5.36-5.36a.61.61,0,0,0-.85,0l-7.6,7.6L21,56.08l6.43-6.43a.59.59,0,0,1,.85,0l4.19,4.19-2.72,2.72,1.17,1.17L33.65,55l6,6,1.17-1.17-6-6,7.5-7.5a.6.6,0,0,1,.84,0l6.43,6.43,1.17-1.17L43.16,44A.6.6,0,0,0,42.32,44Z"/><circle class="cls-3" cx="25.39" cy="43.92" r="1.65"/><circle class="cls-3" cx="118.5" cy="111.42" r="3"/><rect class="cls-1" x="56.43" y="32.5" width="54.61" height="15" transform="translate(159.99 -12.86) rotate(119.74)"/><path class="cls-2" d="M96.35,2.25h13.3a0,0,0,0,1,0,0v15a0,0,0,0,1,0,0H96.35a3.7,3.7,0,0,1-3.7-3.7V6a3.7,3.7,0,0,1,3.7-3.7Z" transform="translate(159.79 -73.24) rotate(119.74)"/><polygon class="cls-2" points="76.7 67.42 70.19 63.7 63.67 59.98 64.73 73.25 76.7 67.42"/><rect class="cls-2" x="114.5" y="85.42" width="15" height="3" rx="1.5"/><rect class="cls-2" x="107.5" y="85.42" width="3" height="3" rx="1.5"/><rect class="cls-2" x="114.5" y="90.42" width="15" height="3" rx="1.5"/><rect class="cls-2" x="107.5" y="90.42" width="3" height="3" rx="1.5"/><rect class="cls-2" x="114.5" y="96.42" width="15" height="3" rx="1.5"/><rect class="cls-2" x="107.5" y="96.42" width="3" height="3" rx="1.5"/></g></g></svg>