<svg xmlns="http://www.w3.org/2000/svg" viewBox="0 0 118.59 101.6"><defs><style>.cls-1{fill:#e54a55;}.cls-2{fill:#f7931e;}</style></defs><title>icon-seo</title><g id="Layer_2" data-name="Layer 2"><g id="Layer_1-2" data-name="Layer 1"><path class="cls-1" d="M74.35,29.14a36,36,0,0,0-1-3.55,37.73,37.73,0,1,0,1,3.55ZM64.18,57.72a33.24,33.24,0,0,1-57.87-9,36.81,36.81,0,0,1-1-3.55,33.23,33.23,0,0,1,64.49-16,32.66,32.66,0,0,1,.78,3.79A33.14,33.14,0,0,1,64.18,57.72Z"/><path class="cls-1" d="M53.45,16.79h0a2.21,2.21,0,0,1-3,.53l-.09-.06a2.2,2.2,0,0,1-.79-2.88h0a2.22,2.22,0,0,1,3.12-.88l.17.11A2.2,2.2,0,0,1,53.45,16.79Z"/><path class="cls-1" d="M41.56,13.93a24,24,0,0,0-21.77,7.64,2.22,2.22,0,0,1-3,.31h0a2.22,2.22,0,0,1-.33-3.24A28.41,28.41,0,0,1,42.32,9.56a2.22,2.22,0,0,1,1.77,2.73h0A2.22,2.22,0,0,1,41.56,13.93Z"/><path class="cls-1" d="M115.84,85.51,80.19,61l-2.25,3L68,56.41l-4,5.3,10,7.56-1.86,2.46,32.63,28.51c3.41,2.59,8.68,1.38,11.75-2.68h0C119.53,93.49,119.25,88.1,115.84,85.51Z"/><path class="cls-1" d="M6.31,48.71l0,0A1.62,1.62,0,0,1,4,46.46l1.3-1.3A36.81,36.81,0,0,0,6.31,48.71Z"/><path class="cls-1" d="M17,38,9.4,45.61a1.6,1.6,0,0,1-2.7-.8v0a1.58,1.58,0,0,1,.44-1.46l7.78-7.78A6.46,6.46,0,0,0,17,38Z"/><path class="cls-1" d="M40.51,49.85a6.63,6.63,0,0,0-1.8,2.77L24.44,38.35a6.66,6.66,0,0,0,2.28-2.29Z"/><path class="cls-1" d="M69,30a30.59,30.59,0,0,1,.72,3.84L51.29,52.2a6.73,6.73,0,0,0-1.95-2.62Z"/><path class="cls-1" d="M73.34,25.59a36,36,0,0,1,1,3.55l-3.79,3.79a32.66,32.66,0,0,0-.78-3.79Z"/><path class="cls-1" d="M76.93,24.37a1.59,1.59,0,0,1,0,2.22l-2.06,2.06c0-.14-.06-.27-.09-.4-.27-1.06-.58-2.1-.94-3.13l.81-.81a1.58,1.58,0,0,1,2.28,0Z"/><path class="cls-2" d="M26.61,32.59a5.53,5.53,0,0,1-.68,2.68h0a5.65,5.65,0,0,1-5,3,5.56,5.56,0,0,1-3.19-1,5.65,5.65,0,1,1,8.84-4.66Z"/><path class="cls-2" d="M45.07,60.46a5.66,5.66,0,0,1-5.65-5.66,5.17,5.17,0,0,1,.16-1.31,5.48,5.48,0,0,1,1.7-2.87,5.63,5.63,0,0,1,7.28-.26,5.65,5.65,0,0,1-3.49,10.1Z"/><path class="cls-2" d="M81.81,25.39a5.67,5.67,0,0,1-5.08-3.19,5.5,5.5,0,0,1-.57-2.47,5.66,5.66,0,1,1,5.65,5.66Z"/><path class="cls-2" d="M50.73,54.8a5.66,5.66,0,1,1-11.31,0,5.17,5.17,0,0,1,.16-1.31,5.48,5.48,0,0,1,1.7-2.87,5.63,5.63,0,0,1,7.28-.26,5.61,5.61,0,0,1,2.17,4.44Z"/><path class="cls-2" d="M87.47,19.73A5.65,5.65,0,0,1,76.73,22.2a5.5,5.5,0,0,1-.57-2.47,5.66,5.66,0,0,1,11.31,0Z"/></g></g></svg>