<svg xmlns="http://www.w3.org/2000/svg" xmlns:xlink="http://www.w3.org/1999/xlink" viewBox="0 0 171.64 67.65"><defs><style>.cls-1{fill:url(#linear-gradient);}.cls-2{fill:url(#linear-gradient-2);}.cls-3{fill:url(#linear-gradient-3);}.cls-4{fill:url(#linear-gradient-4);}.cls-5{fill:url(#linear-gradient-5);}.cls-6{fill:url(#linear-gradient-6);}.cls-7{fill:url(#linear-gradient-7);}.cls-8{fill:url(#linear-gradient-8);}.cls-9{fill:url(#linear-gradient-9);}.cls-10{fill:#231f20;}.cls-11{fill:#ec2025;}</style><linearGradient id="linear-gradient" x1="19.44" y1="22.82" x2="41.32" y2="22.82" gradientUnits="userSpaceOnUse"><stop offset="0" stop-color="#f9a11e"/><stop offset="0.99" stop-color="#eb2427"/></linearGradient><linearGradient id="linear-gradient-2" x1="31.15" y1="32.94" x2="36.24" y2="44.83" gradientUnits="userSpaceOnUse"><stop offset="0.01" stop-color="#eb2427"/><stop offset="1" stop-color="#f9a11e"/></linearGradient><linearGradient id="linear-gradient-3" x1="26.27" y1="35.03" x2="31.37" y2="46.92" xlink:href="#linear-gradient-2"/><linearGradient id="linear-gradient-4" x1="31.03" y1="32.99" x2="33.79" y2="39.45" xlink:href="#linear-gradient-2"/><linearGradient id="linear-gradient-5" x1="29.58" y1="33.61" x2="34.68" y2="45.5" xlink:href="#linear-gradient-2"/><linearGradient id="linear-gradient-6" x1="15.37" y1="67.94" x2="37.04" y2="43.55" xlink:href="#linear-gradient"/><linearGradient id="linear-gradient-7" x1="3.35" y1="19.58" x2="29.06" y2="19.58" xlink:href="#linear-gradient"/><linearGradient id="linear-gradient-8" x1="6.92" y1="61.29" x2="9.22" y2="29.68" xlink:href="#linear-gradient"/><linearGradient id="linear-gradient-9" x1="16.32" y1="23.91" x2="16.36" y2="23.91" gradientUnits="userSpaceOnUse"><stop offset="0" stop-color="#ec1869"/><stop offset="1" stop-color="#dc2124"/></linearGradient></defs><title>rbllogo</title><g id="Layer_2" data-name="Layer 2"><g id="Layer_1-2" data-name="Layer 1"><path class="cls-1" d="M32.68,4.12S36,10.81,30.51,18.84,13.29,33.31,23.43,41.53c0,0-1.4-.83,8.61-11.15S46.32,11.83,32.68,4.12Z"/><path class="cls-2" d="M30.56,31.9l.19-.21"/><path class="cls-3" d="M30.56,31.9c-8.37,8.85-7.13,9.6-7.13,9.6"/><path class="cls-4" d="M30.56,31.89h0"/><path class="cls-5" d="M30.56,31.9c1.06,1.58,3.67,1.74,7.67,3.37,5.73,2.34,2.59,11.56,2.59,11.56s.42-4.12-7.86-4.08-9.58-1.3-9.58-1.3"/><path class="cls-6" d="M33,42.75c-.73,0-1.4,0-2,0,.4,1.31.44,4-4.23,6.74-6.55,3.86-14.45,7.22-13,18.18,0,0,1.44-1.36,9.21-5.86s16.23-6.79,17.9-15C40.82,46.83,41.24,42.71,33,42.75Z"/><path class="cls-7" d="M28.83,5.18c-.5,3.54-1.59,12.6-12.47,18.71l-.27.15c-10,5.5-12,13.45-12.28,15l-.08.1s0,0,0-.09c-.35-2.16-2.32-16.92,8.37-23.52A55.57,55.57,0,0,0,28.56.41L28.83,0A13,13,0,0,1,28.83,5.18Z"/><path class="cls-8" d="M16.36,23.89l0,.05-.3.37c-2.88,3.78-3.09,8-3.54,19.52C11.9,58.89.36,63.9,0,64.05c.21-.22,3.58-3.87,3.66-18,0-2.79,0-5,0-6.87L3.74,39l.13-.15c.45-2.06,2.7-9.52,12.22-14.76Z"/><polygon class="cls-9" points="16.36 23.89 16.32 23.94 16.36 23.89 16.36 23.89"/><path class="cls-10" d="M63.24,30.52a11.24,11.24,0,0,1,4.05,3.29c.44.5.76.87,1,1.12a45.88,45.88,0,0,0,4.41,4.3,9.45,9.45,0,0,0,3.21,1.89,7.59,7.59,0,0,1-1.37,2.5,2.29,2.29,0,0,1-1.7.75,3.32,3.32,0,0,1-1.83-.7,13.37,13.37,0,0,1-2.34-2.28c-.67-.78-1.58-1.86-2.73-3.23q-5.3-6.4-8.43-6.41c-.23,0-.53,0-.87,0s-.77.06-1.28.12q.13,5,.45,7.32a11.68,11.68,0,0,0,1,3.59,10.16,10.16,0,0,1-2,.86,5.56,5.56,0,0,1-1.67.28,2,2,0,0,1-1.68-.62A4.93,4.93,0,0,1,51,40.76c0-.45.08-2.41.22-5.89s.21-6.75.21-9.81q0-5.93-.31-8.76a14.67,14.67,0,0,0-1-4.35c1.93-.06,3.94-.15,6-.28s3.28-.19,3.51-.19c3.37,0,6,.8,7.95,2.4a8,8,0,0,1,2.9,6.49,10.37,10.37,0,0,1-1.84,6.18A11.68,11.68,0,0,1,63.24,30.52ZM55.71,15.24q-.18,3.75-.27,7.17T55.35,29l.53,0,.53,0a10.85,10.85,0,0,0,7.14-2.15,7.34,7.34,0,0,0,2.58-6,5.56,5.56,0,0,0-1.89-4.5,8.11,8.11,0,0,0-5.35-1.59c-.5,0-1,0-1.54.08S56.28,15.12,55.71,15.24Z"/><path class="cls-10" d="M97.22,16.3a10.87,10.87,0,0,0-2.88-.8,29.42,29.42,0,0,0-4.29-.26c-.71,0-2,0-4,.07-.48,0-.85,0-1.1,0l-.18,9.91c.4,0,.84,0,1.3,0h2.19c2,0,3.63,0,4.92-.13A14,14,0,0,0,96,24.74a9.33,9.33,0,0,1,.41,1.11,3.21,3.21,0,0,1,.13.86,1.73,1.73,0,0,1-.69,1.55,4.28,4.28,0,0,1-2.29.47c-.34,0-1.19,0-2.54-.05s-2.52,0-3.51,0H85.82l-1.12,0c0,1.69,0,3.49-.06,5.39s-.09,4-.16,6.26l.67,0c1.95,0,3.35.06,4.19.06a25.23,25.23,0,0,0,4.09-.28,11.42,11.42,0,0,0,3-.9,7.7,7.7,0,0,1,.7,1.49,3.48,3.48,0,0,1,.22,1.17,1.81,1.81,0,0,1-.79,1.67,6.28,6.28,0,0,1-3,.48c-.71,0-1.79,0-3.22-.06s-2.5-.07-3.21-.07c-1.58,0-3.16,0-4.75.11l-.6,0a1.45,1.45,0,0,1-1.11-.36,1.82,1.82,0,0,1-.32-1.25c0-.31,0-1.11.11-2.4q.36-6.94.36-13t-.22-9.66A32.07,32.07,0,0,0,80,11.93h2.85q5.24,0,10.77-.34L95,11.53a5.24,5.24,0,0,1,2.48.4,1.54,1.54,0,0,1,.68,1.43A4.2,4.2,0,0,1,98,14.67,9.62,9.62,0,0,1,97.22,16.3Z"/><path class="cls-10" d="M116.64,27.72a9.67,9.67,0,0,1,4.69,2.52,5.87,5.87,0,0,1,1.59,4.18c0,2.72-1.3,5-3.88,6.88a16.24,16.24,0,0,1-9.74,2.8c-2.18,0-3.63-.26-4.35-.79s-1.07-1.53-1.07-3c0-.36.07-2.15.21-5.39s.21-6.27.21-9.1c0-4-.1-7.12-.31-9.27a16.17,16.17,0,0,0-1-4.78q3.15,0,6.54-.14l1,0c3.8,0,6.8.78,9,2.34a7.27,7.27,0,0,1,3.33,6.24,6.8,6.8,0,0,1-1.56,4.44A11.2,11.2,0,0,1,116.64,27.72ZM108.24,15c0,1.21-.07,2.64-.1,4.29s0,4-.08,7.07c.42.06.83.1,1.21.12l1.12,0A10.44,10.44,0,0,0,116.51,25a5,5,0,0,0,2.15-4.33,5,5,0,0,0-2-4.29,9.76,9.76,0,0,0-5.83-1.49l-1.24,0C109.12,14.94,108.69,15,108.24,15Zm-.13,14.4v3.16c0,1.08,0,2.2,0,3.36s0,2.63.07,4.39c.51.08,1,.13,1.48.17s.95.06,1.41.06a8.91,8.91,0,0,0,5.52-1.6,5,5,0,0,0,2.1-4.18,4.53,4.53,0,0,0-2.16-4.07,11.81,11.81,0,0,0-6.34-1.38l-.77,0C109.17,29.35,108.72,29.38,108.11,29.42Z"/><path class="cls-10" d="M147.74,16.3a10.87,10.87,0,0,0-2.88-.8,29.62,29.62,0,0,0-4.29-.26c-.72,0-2,0-4,.07-.48,0-.84,0-1.1,0l-.18,9.91c.41,0,.84,0,1.3,0h2.2c2,0,3.62,0,4.92-.13a14.09,14.09,0,0,0,2.83-.41,9.09,9.09,0,0,1,.4,1.11,3.26,3.26,0,0,1,.14.86,1.72,1.72,0,0,1-.7,1.55,4.22,4.22,0,0,1-2.28.47c-.35,0-1.19,0-2.54-.05s-2.52,0-3.51,0h-1.72l-1.12,0c0,1.69,0,3.49-.06,5.39s-.09,4-.17,6.26l.67,0c2,0,3.36.06,4.19.06a25.14,25.14,0,0,0,4.09-.28,11.3,11.3,0,0,0,3-.9,7.81,7.81,0,0,1,.71,1.49,3.72,3.72,0,0,1,.21,1.17,1.81,1.81,0,0,1-.78,1.67,6.31,6.31,0,0,1-3,.48c-.72,0-1.79,0-3.23-.06s-2.5-.07-3.2-.07c-1.58,0-3.17,0-4.75.11l-.6,0a1.42,1.42,0,0,1-1.11-.36,1.82,1.82,0,0,1-.33-1.25c0-.31,0-1.11.11-2.4q.36-6.94.36-13t-.21-9.66a32.07,32.07,0,0,0-.66-5.44h2.84q5.25,0,10.78-.34l1.43-.06a5.31,5.31,0,0,1,2.49.4,1.53,1.53,0,0,1,.67,1.43,4.47,4.47,0,0,1-.23,1.31A9.62,9.62,0,0,1,147.74,16.3Z"/><path class="cls-10" d="M158.89,40.24c.63.06,1.25.11,1.87.14s1.24,0,1.85,0a33.91,33.91,0,0,0,5.09-.29,9.68,9.68,0,0,0,3.07-.94,6.69,6.69,0,0,1,.66,1.47,4.93,4.93,0,0,1,.21,1.42,1.55,1.55,0,0,1-.78,1.5,6.79,6.79,0,0,1-2.94.43c-.51,0-1.47,0-2.89-.07s-2.57-.07-3.47-.07c-1.27,0-2.55,0-3.83.09l-1.95.09a1.38,1.38,0,0,1-1.08-.36,1.94,1.94,0,0,1-.31-1.25c0-.3,0-1.08.11-2.33q.41-7.09.41-13.49c0-4-.12-7.07-.34-9.2a13.13,13.13,0,0,0-1.1-4.62,11.87,11.87,0,0,1,2-.85,6.16,6.16,0,0,1,1.81-.29,2,2,0,0,1,1.71.64,5,5,0,0,1,.46,2.63c0,.39,0,1.42-.11,3.09q-.41,9.61-.41,18.15Z"/><path class="cls-11" d="M50.36,55.84a3.9,3.9,0,0,0,2,.55c1.12,0,1.77-.59,1.77-1.44s-.45-1.24-1.59-1.68c-1.38-.49-2.24-1.21-2.24-2.4s1.1-2.3,2.74-2.3a3.76,3.76,0,0,1,1.87.42l-.3.89a3.39,3.39,0,0,0-1.61-.4c-1.15,0-1.59.69-1.59,1.26,0,.79.51,1.18,1.68,1.64,1.43.55,2.16,1.24,2.16,2.48s-1,2.44-3,2.44a4.37,4.37,0,0,1-2.16-.54Z"/><path class="cls-11" d="M71.46,52.85c0,2.91-1.77,4.46-3.93,4.46s-3.8-1.73-3.8-4.29,1.67-4.45,3.93-4.45S71.46,50.34,71.46,52.85ZM64.9,53c0,1.81,1,3.43,2.7,3.43s2.71-1.6,2.71-3.52c0-1.68-.88-3.44-2.7-3.44S64.9,51.13,64.9,53Z"/><path class="cls-11" d="M80.41,48.71H81.5v7.54h3.62v.92H80.41Z"/><path class="cls-11" d="M94.51,48.71v5c0,1.89.84,2.7,2,2.7s2-.83,2-2.7v-5h1.11v4.93c0,2.6-1.37,3.67-3.2,3.67s-3-1-3-3.62v-5Z"/><path class="cls-11" d="M110.67,49.64H108.1v-.93h6.26v.93h-2.59v7.53h-1.1Z"/><path class="cls-11" d="M123.92,48.71v8.46h-1.09V48.71Z"/><path class="cls-11" d="M140.59,52.85c0,2.91-1.77,4.46-3.93,4.46s-3.8-1.73-3.8-4.29,1.67-4.45,3.93-4.45S140.59,50.34,140.59,52.85ZM134,53c0,1.81,1,3.43,2.7,3.43s2.71-1.6,2.71-3.52c0-1.68-.88-3.44-2.7-3.44S134,51.13,134,53Z"/><path class="cls-11" d="M149.54,57.17V48.71h1.19L153.44,53A22.94,22.94,0,0,1,155,55.74h0c-.1-1.13-.13-2.16-.13-3.48V48.71h1v8.46h-1.1l-2.69-4.29a25.26,25.26,0,0,1-1.58-2.83l0,0c.06,1.06.09,2.08.09,3.49v3.61Z"/><path class="cls-11" d="M165.18,55.84a3.86,3.86,0,0,0,1.95.55c1.12,0,1.77-.59,1.77-1.44s-.45-1.24-1.59-1.68c-1.38-.49-2.23-1.21-2.23-2.4s1.09-2.3,2.73-2.3a3.73,3.73,0,0,1,1.87.42l-.3.89a3.35,3.35,0,0,0-1.6-.4c-1.16,0-1.6.69-1.6,1.26,0,.79.52,1.18,1.68,1.64,1.43.55,2.16,1.24,2.16,2.48s-1,2.44-3,2.44a4.37,4.37,0,0,1-2.16-.54Z"/></g></g></svg>