<svg xmlns="http://www.w3.org/2000/svg" xmlns:xlink="http://www.w3.org/1999/xlink" viewBox="0 0 60.88 27.94"><defs><style>.cls-1{fill:url(#linear-gradient);}.cls-2{fill:#f7931e;}.cls-3{fill:#e6e6e6;}.cls-4{fill:url(#linear-gradient-2);}</style><linearGradient id="linear-gradient" x1="-158.81" y1="-25.31" x2="-158.81" y2="-79.26" gradientTransform="translate(-8.34 172.78) rotate(90)" gradientUnits="userSpaceOnUse"><stop offset="0.01" stop-color="#eb2427"/><stop offset="1" stop-color="#f9a11e"/></linearGradient><linearGradient id="linear-gradient-2" x1="-158.72" y1="-23.93" x2="-158.99" y2="-16.29" xlink:href="#linear-gradient"/></defs><title>rocket</title><g id="Layer_2" data-name="Layer 2"><g id="Layer_1-2" data-name="Layer 1"><path class="cls-1" d="M12.94,19.45c4.63,2.8,12.71,4.66,21.91,4.66,14.37,0,26-4.54,26-10.14S49.22,3.82,34.85,3.82c-9.2,0-17.28,1.86-21.91,4.67Z"/><path class="cls-2" d="M18.15,0H15.22a19.17,19.17,0,0,1,.06,6.23l-.43,2.15L24.7,6.47Z"/><path class="cls-2" d="M18.15,27.94H15.22a19.22,19.22,0,0,0,.06-6.24l-.43-2.14,9.85,1.91Z"/><rect class="cls-2" x="19.56" y="9.26" width="0.59" height="9.7" transform="translate(33.97 -5.73) rotate(90)"/><path class="cls-2" d="M14.12,7.84c-.42.21-.81.43-1.18.65v11c.37.22.76.44,1.18.65Z"/><circle class="cls-2" cx="43.52" cy="14.41" r="5.59"/><circle class="cls-3" cx="43.52" cy="14.41" r="4.71"/><polygon class="cls-4" points="12.94 13.97 12.94 8.53 0 13.97 12.94 19.41 12.94 13.97"/></g></g></svg>