<svg xmlns="http://www.w3.org/2000/svg" xmlns:xlink="http://www.w3.org/1999/xlink" viewBox="0 0 70.81 164.27"><defs><style>.cls-1{fill:#333;}.cls-2{fill:url(#linear-gradient);}.cls-3{fill:url(#linear-gradient-2);}</style><linearGradient id="linear-gradient" x1="33.86" y1="113.88" x2="38.95" y2="21.76" gradientUnits="userSpaceOnUse"><stop offset="0.01" stop-color="#eb2427"/><stop offset="1" stop-color="#f9a11e"/></linearGradient><linearGradient id="linear-gradient-2" x1="9.87" y1="97.61" x2="19.54" y2="8.55" xlink:href="#linear-gradient"/></defs><title>tree-footer</title><g id="Layer_2" data-name="Layer 2"><g id="Layer_1-2" data-name="Layer 1"><rect class="cls-1" x="32.28" y="115.13" width="2.23" height="49.14"/><path class="cls-2" d="M65.41,75.79C83.24,90.32,52.82,126,34,126S0,111.92,0,84.38C0,72.06,14.26,66.67,9.25,58-5.95,31.52,17.5,26.33,20.48,15,23.78,2.45,28.78,3.22,32,.08,33.69-1.51,62.76,21,58.14,50.68,56.76,59.56,58.52,70.18,65.41,75.79Z"/><path class="cls-3" d="M6.13,110.18A32.42,32.42,0,0,1,10,99.49c14.52-26.8,11.72-33.5,5.58-46.9C9.64,39.72,23.35,12.94,32.28.1A24.6,24.6,0,0,0,20.48,15C17.5,26.33-5.95,31.52,9.25,58,14.26,66.67,0,72.06,0,84.38,0,95,2.27,103.6,6.13,110.18Z"/></g></g></svg>